<svg width="64" height="64" viewBox="0 0 64 64" fill="none" xmlns="http://www.w3.org/2000/svg">
<path fill-rule="evenodd" clip-rule="evenodd" d="M31.3195 13.2415C34.7661 14.9796 38.9491 13.595 40.6871 10.1481C40.7833 9.95568 40.8621 9.75448 40.9424 9.54931L40.9424 9.54921L40.9425 9.54913C41.0097 9.37749 41.0779 9.20306 41.1584 9.02864L46.2841 10.6784C46.1368 13.3593 47.3151 15.2153 49.5245 15.7456C51.3509 16.1875 53.2362 15.4216 54.2083 13.8307C55.4455 11.7979 54.8269 9.14648 52.7943 7.90914C51.9106 7.34939 50.8795 7.14317 49.8485 7.31993C48.4935 7.52616 47.3151 8.38051 46.6965 9.58839C46.6479 9.58839 46.6082 9.57946 46.5724 9.57143C46.5433 9.56488 46.5168 9.55893 46.4903 9.55893C44.8701 9.02864 43.2499 8.49835 41.6298 7.99753C41.3941 7.90914 41.3941 7.7913 41.3941 7.58508C41.6298 4.72742 40.1274 2.01706 37.5646 0.750256C34.118 -0.98791 29.935 0.396731 28.1969 3.8436C26.4589 7.29047 27.8729 11.5033 31.3195 13.2415ZM26.9303 34.2762C28.138 35.543 28.845 37.2223 28.845 38.9604C28.9039 42.8198 25.8109 46.0309 21.9519 46.0899C18.0929 46.1488 14.882 43.0554 14.8231 39.1961C14.8231 38.9899 14.8231 38.7837 14.8525 38.6069L13.7331 38.3712C12.9377 40.6986 11.4059 42.2895 9.0493 43.026C7.45857 43.5268 5.72055 43.4384 4.18874 42.7314C0.653786 41.17 -0.966401 37.0455 0.594869 33.5103C1.77319 30.7999 4.57169 29.1206 7.51748 29.3563C9.46171 29.4742 11.2586 30.3874 12.4664 31.9194C13.7036 33.4219 14.2339 35.3368 13.9982 37.2517C14.0866 37.2812 14.175 37.3106 14.2339 37.3106L15.0587 37.4874C15.589 35.2779 17.1797 33.4513 19.3007 32.597C19.0061 31.4923 18.7115 30.3949 18.417 29.2975C18.1224 28.2001 17.8278 27.1026 17.5332 25.9978C14.3517 26.5281 11.5238 25.7916 9.13767 23.6115C7.42911 22.0796 6.36862 19.929 6.13296 17.6605C5.5438 12.3577 9.34388 7.64399 14.5874 7.08424C18.8882 6.61287 22.9829 9.11701 24.5442 13.1531C25.5163 15.5983 25.3984 18.3087 24.2496 20.6655C23.0713 23.1107 21.186 24.731 18.6231 25.6738L18.6232 25.6739L18.6232 25.674L18.6232 25.6741L18.6232 25.6742L18.6233 25.6744C19.2124 27.8542 19.8015 30.0341 20.3611 32.214C22.924 31.7721 25.1333 32.3908 26.9303 34.2762ZM50.7028 26.3514C52.4114 22.875 56.5944 21.4315 60.0704 23.1402C63.5465 24.8489 64.9899 29.0323 63.2813 32.5086C61.779 35.5725 58.3029 37.1044 55.0037 36.1617C51.8517 35.1895 49.2004 31.6837 50.3493 27.4119L49.4066 27.1173C49.3137 27.2509 49.2219 27.3845 49.1306 27.5174L49.1301 27.5182C48.7584 28.0592 48.3945 28.5889 47.9927 29.0617C47.2268 29.9455 46.2252 30.5937 45.1058 30.9472C44.8112 31.0356 44.7817 31.1534 44.8407 31.4186C44.9287 31.8032 45.0168 32.1871 45.1047 32.5705C45.5757 34.6245 46.0435 36.6642 46.4903 38.7247C46.4903 38.7837 46.5198 38.8426 46.5492 38.9015C49.6129 38.4007 52.323 39.0783 54.6796 41.111C56.3587 42.5546 57.4781 44.5579 57.8316 46.738C58.6859 51.9525 55.1509 56.8724 49.9369 57.7267C45.7244 58.4338 41.5708 56.2537 39.7444 52.3944L33.9412 54.8985C34.5598 57.1964 34.2653 59.3176 32.8218 61.2325C31.8497 62.5582 30.4063 63.501 28.8156 63.825C25.0449 64.6794 21.3038 62.3226 20.4495 58.5516C19.7425 55.4877 21.1859 52.306 23.955 50.833C27.4016 49.0064 31.673 50.3322 33.4994 53.779C33.4994 53.7938 33.5067 53.8011 33.5141 53.8085C33.5215 53.8159 33.5288 53.8232 33.5288 53.838L39.332 51.3338C37.6824 46.2961 40.3925 40.8754 45.4298 39.2256C44.8407 36.5741 44.2515 33.9521 43.6329 31.3007C41.1584 31.4775 39.0669 30.682 37.4762 28.7966C36.3568 27.5003 35.7676 25.7916 35.856 24.0829C35.9738 20.2236 39.1847 17.2186 43.0437 17.3365C45.1647 17.3659 47.1384 18.397 48.4051 20.1057C49.7601 21.8439 50.0842 23.8472 49.6423 25.9978L50.7028 26.3514ZM7.90043 52.4239C7.90043 50.0965 9.78574 48.211 12.1424 48.211C14.499 48.211 16.3549 50.0965 16.3549 52.4533C16.3549 54.7807 14.4696 56.6662 12.1424 56.6662C9.8152 56.6662 7.92989 54.7807 7.90043 52.4239ZM33.5878 37.6937C33.6172 39.7264 35.2669 41.3468 37.2995 41.3173C39.3026 41.2878 40.9228 39.6381 40.9228 37.6347C40.8933 35.602 39.2731 33.9816 37.2406 33.9816C35.208 34.0111 33.5878 35.6314 33.5878 37.6937ZM26.5766 29.3858C24.544 29.3564 22.9533 27.7066 22.9533 25.6738C22.9828 23.641 24.6324 22.0502 26.665 22.0502C28.6976 22.0796 30.2883 23.7294 30.2883 25.7622V25.8211C30.2294 27.8244 28.5798 29.4153 26.5766 29.3858Z" fill="white"/>
</svg>
