<svg width="24" height="24" viewBox="0 0 24 24" fill="none" xmlns="http://www.w3.org/2000/svg">
<path d="M14.9119 5.9864C13.9999 5.3288 12.8543 5 11.4751 5C10.4263 5 9.54068 5.2312 8.82148 5.6944C7.67988 6.4192 7.07348 7.6504 6.99988 9.3864H9.64548C9.64548 8.88 9.79348 8.3944 10.0879 7.924C10.3831 7.4552 10.8839 7.2208 11.5903 7.2208C12.3087 7.2208 12.8039 7.4112 13.0735 7.7912C13.3447 8.1728 13.4799 8.5944 13.4799 9.0568C13.4799 9.46 13.2783 9.8288 13.0343 10.1632C12.8889 10.3708 12.7102 10.553 12.5055 10.7024C12.5055 10.7024 11.0711 11.6224 10.4415 12.3616C10.0767 12.7896 10.0439 13.432 10.0111 14.352C10.0095 14.4176 10.0343 14.5536 10.2631 14.5536H12.3199C12.5247 14.5536 12.5671 14.4024 12.5695 14.3344C12.5839 14 12.6207 13.828 12.6823 13.6344C12.7975 13.2688 13.1127 12.9504 13.4655 12.6752L14.1935 12.1736C14.8511 11.6608 15.3751 11.2408 15.6071 10.9112C16.0023 10.3704 16.2807 9.7032 16.2807 8.9112C16.2799 7.6192 15.8239 6.6456 14.9119 5.9864ZM11.4327 16.1392C10.5215 16.1112 9.76948 16.7424 9.74068 17.7312C9.71268 18.7184 10.4271 19.372 11.3391 19.3984C12.2903 19.4264 13.0223 18.8168 13.0519 17.828C13.0791 16.8392 12.3847 16.1672 11.4327 16.1392Z" fill="#ABAED1"/>
</svg>
