<svg width="24" height="24" viewBox="0 0 24 24" fill="none" xmlns="http://www.w3.org/2000/svg">
<g clip-path="url(#clip0_1350_11870)">
<rect width="24" height="24" fill="white" fill-opacity="0.01"/>
<path fill-rule="evenodd" clip-rule="evenodd" d="M12.7031 3.5625H11.2969C11.1719 3.5625 11.1094 3.625 11.1094 3.75V11.1094H4.125C4 11.1094 3.9375 11.1719 3.9375 11.2969V12.7031C3.9375 12.8281 4 12.8906 4.125 12.8906H11.1094V20.25C11.1094 20.375 11.1719 20.4375 11.2969 20.4375H12.7031C12.8281 20.4375 12.8906 20.375 12.8906 20.25V12.8906H19.875C20 12.8906 20.0625 12.8281 20.0625 12.7031V11.2969C20.0625 11.1719 20 11.1094 19.875 11.1094H12.8906V3.75C12.8906 3.625 12.8281 3.5625 12.7031 3.5625Z" fill="white"/>
</g>
<defs>
<clipPath id="clip0_1350_11870">
<rect width="24" height="24" fill="white"/>
</clipPath>
</defs>
</svg>
