<svg width="903" height="533" viewBox="0 0 903 533" fill="none" xmlns="http://www.w3.org/2000/svg">
<path d="M101.047 507.731C102.627 506.152 102.627 503.59 101.047 502.01C99.4669 500.43 96.9053 500.43 95.3254 502.01C93.7455 503.59 93.7455 506.152 95.3254 507.731C96.9053 509.311 99.4669 509.311 101.047 507.731ZM98.1862 415.43L97.4276 415.43L98.1862 415.43ZM122.46 391.156L122.46 391.914L122.46 391.156ZM251.534 394.016C253.114 392.436 253.114 389.874 251.534 388.294C249.954 386.714 247.393 386.714 245.813 388.294C244.233 389.874 244.233 392.436 245.813 394.016C247.393 395.595 249.954 395.595 251.534 394.016ZM98.9447 504.871L98.9447 415.43L97.4276 415.43L97.4276 504.871L98.9447 504.871ZM122.46 391.914L248.674 391.913L248.674 390.396L122.46 390.397L122.46 391.914ZM98.9447 415.43C98.9447 402.443 109.473 391.915 122.46 391.914L122.46 390.397C108.635 390.397 97.4276 401.605 97.4276 415.43L98.9447 415.43Z" fill="#353860"/>
<path d="M637.07 289.611C638.65 288.031 638.65 285.469 637.07 283.889C635.49 282.309 632.928 282.309 631.348 283.889C629.768 285.469 629.768 288.031 631.348 289.611C632.928 291.191 635.49 291.191 637.07 289.611ZM634.209 197.309L633.451 197.309L634.209 197.309ZM658.483 173.035L658.483 173.794L658.483 173.035ZM787.557 175.895C789.137 174.315 789.137 171.753 787.557 170.173C785.977 168.594 783.416 168.594 781.836 170.173C780.256 171.753 780.256 174.315 781.836 175.895C783.416 177.475 785.977 177.475 787.557 175.895ZM634.968 286.75L634.968 197.309L633.451 197.309L633.451 286.75L634.968 286.75ZM658.483 173.794L784.696 173.793L784.696 172.276L658.483 172.277L658.483 173.794ZM634.968 197.309C634.968 184.322 645.496 173.794 658.483 173.794L658.483 172.277C644.658 172.277 633.451 183.484 633.451 197.309L634.968 197.309Z" fill="#353860"/>
<path d="M642.983 528.623C641.403 527.043 641.403 524.482 642.983 522.902C644.563 521.322 647.124 521.322 648.704 522.902C650.284 524.482 650.284 527.043 648.704 528.623C647.124 530.203 644.563 530.203 642.983 528.623ZM645.844 436.322L646.602 436.322L645.844 436.322ZM621.57 412.048L621.57 412.806L621.57 412.048ZM492.496 414.907C490.916 413.327 490.916 410.766 492.496 409.186C494.075 407.606 496.637 407.606 498.217 409.186C499.797 410.766 499.797 413.327 498.217 414.907C496.637 416.487 494.075 416.487 492.496 414.907ZM645.085 525.762L645.085 436.322L646.602 436.322L646.602 525.762L645.085 525.762ZM621.57 412.806L495.356 412.805L495.356 411.288L621.57 411.289L621.57 412.806ZM645.085 436.322C645.085 423.334 634.557 412.806 621.57 412.806L621.57 411.289C635.395 411.289 646.602 422.497 646.602 436.322L645.085 436.322Z" fill="#353860"/>
<path d="M103.711 280.95C105.291 282.53 107.852 282.53 109.432 280.95C111.012 279.37 111.012 276.808 109.432 275.228C107.852 273.648 105.291 273.648 103.711 275.228C102.131 276.808 102.131 279.37 103.711 280.95ZM189.3 278.471L189.297 279.23L189.3 278.471ZM213.462 302.633L214.22 302.629L213.462 302.633ZM211.144 422.752C212.724 424.332 215.286 424.332 216.866 422.752C218.446 421.172 218.446 418.611 216.866 417.031C215.286 415.451 212.724 415.451 211.144 417.031C209.564 418.611 209.564 421.172 211.144 422.752ZM106.568 278.848L189.297 279.23L189.304 277.713L106.575 277.33L106.568 278.848ZM212.703 302.636L213.246 419.895L214.763 419.888L214.22 302.629L212.703 302.636ZM189.297 279.23C202.199 279.29 212.644 289.734 212.703 302.636L214.22 302.629C214.157 288.895 203.038 277.776 189.304 277.713L189.297 279.23Z" fill="#353860"/>
<path d="M463.244 528.943C463.244 531.177 465.055 532.989 467.289 532.989C469.524 532.989 471.335 531.177 471.335 528.943C471.335 526.708 469.524 524.897 467.289 524.897C465.055 524.897 463.244 526.708 463.244 528.943ZM551.68 327.469L550.927 327.566L551.68 327.469ZM544.772 305.278C544.772 307.513 546.584 309.324 548.818 309.324C551.052 309.324 552.864 307.513 552.864 305.278C552.864 303.044 551.052 301.233 548.818 301.233C546.584 301.233 544.772 303.044 544.772 305.278ZM542.283 346.093L541.914 345.43L542.283 346.093ZM531.976 362.339V504.669H533.493V362.339H531.976ZM508.46 528.184H467.289V529.701H508.46V528.184ZM552.432 327.372L549.57 305.181L548.066 305.375L550.927 327.566L552.432 327.372ZM542.652 346.756C549.571 342.904 553.445 335.226 552.432 327.372L550.927 327.566C551.861 334.804 548.29 341.88 541.914 345.43L542.652 346.756ZM531.976 504.669C531.976 517.656 521.448 528.184 508.46 528.184V529.701C522.285 529.701 533.493 518.494 533.493 504.669H531.976ZM533.493 362.339C533.493 355.868 536.998 349.904 542.652 346.756L541.914 345.43C535.779 348.846 531.976 355.317 531.976 362.339H533.493Z" fill="#353860"/>
</svg>
