<svg width="114" height="113" viewBox="0 0 114 113" fill="none" xmlns="http://www.w3.org/2000/svg">
<path d="M42.875 80.0418C46.8771 77.0756 51.7502 75.3335 57 75.3335C62.2498 75.3335 67.1229 77.0756 71.125 80.0418" stroke="white" stroke-width="2" stroke-linecap="round"/>
<path d="M71.1253 56.5C73.7257 56.5 75.8337 53.338 75.8337 49.4375C75.8337 45.537 73.7257 42.375 71.1253 42.375C68.525 42.375 66.417 45.537 66.417 49.4375C66.417 53.338 68.525 56.5 71.1253 56.5Z" fill="white"/>
<path d="M42.8753 56.5C45.4757 56.5 47.5837 53.338 47.5837 49.4375C47.5837 45.537 45.4757 42.375 42.8753 42.375C40.275 42.375 38.167 45.537 38.167 49.4375C38.167 53.338 40.275 56.5 42.8753 56.5Z" fill="white"/>
<path d="M9.91699 56.4998C9.91699 34.3048 9.91699 23.2072 16.81 16.3095C23.7124 9.4165 34.8052 9.4165 57.0003 9.4165C79.1954 9.4165 90.2929 9.4165 97.1859 16.3095C104.084 23.2119 104.084 34.3048 104.084 56.4998C104.084 78.6949 104.084 89.7925 97.1859 96.6855C90.2977 103.583 79.1954 103.583 57.0003 103.583C34.8052 103.583 23.7077 103.583 16.81 96.6855C9.91699 89.7972 9.91699 78.6949 9.91699 56.4998Z" stroke="white" stroke-width="2"/>
</svg>
