<svg width="843" height="544" viewBox="0 0 843 544" fill="none" xmlns="http://www.w3.org/2000/svg">
<rect x="1.12859" y="1.12859" width="840.043" height="541.723" rx="19.186" fill="#0D0E18" fill-opacity="0.59" style="mix-blend-mode:multiply"/>
<rect x="1.12859" y="1.12859" width="840.043" height="541.723" rx="19.186" stroke="#ABAED1" stroke-width="2.25718"/>
<rect x="16.6865" y="16.6865" width="40.0476" height="510.607" rx="5.00595" fill="#282A48"/>
<rect width="31.6005" height="132.516" transform="translate(21.2002 52.8015)" fill="#282A48"/>
<path d="M37.8618 63.6018H36.1452V65.6007H34.1426V67.3173H36.1452V69.3162H37.8618V67.3173H39.8644V65.6007H37.8618V63.6018Z" fill="#ABAED1"/>
<path d="M39.5136 85.0637V87.1268C39.5136 87.2013 39.4864 87.2657 39.4319 87.3202C39.3775 87.3746 39.313 87.4018 39.2385 87.4018H37.5881V85.7514H36.4878V87.4018H34.8373C34.7628 87.4018 34.6984 87.3746 34.6439 87.3202C34.5895 87.2657 34.5623 87.2013 34.5623 87.1268V85.0637C34.5623 85.0608 34.563 85.0565 34.5644 85.0508C34.5658 85.0451 34.5666 85.0408 34.5666 85.0379L37.0379 83.0006L39.5093 85.0379C39.5122 85.0436 39.5136 85.0522 39.5136 85.0637ZM40.4721 84.7671L40.2056 85.0852C40.1827 85.111 40.1526 85.1267 40.1153 85.1325H40.1024C40.0652 85.1325 40.0351 85.1224 40.0122 85.1024L37.0379 82.6224L34.0637 85.1024C34.0293 85.1253 33.9949 85.1353 33.9605 85.1325C33.9233 85.1267 33.8932 85.111 33.8703 85.0852L33.6038 84.7671C33.5809 84.7385 33.5709 84.7048 33.5737 84.6661C33.5766 84.6274 33.5923 84.5966 33.621 84.5737L36.7113 81.9992C36.803 81.9247 36.9119 81.8875 37.0379 81.8875C37.164 81.8875 37.2729 81.9247 37.3646 81.9992L38.4133 82.876V82.0379C38.4133 81.9978 38.4262 81.9648 38.452 81.939C38.4778 81.9132 38.5107 81.9003 38.5508 81.9003H39.3761C39.4162 81.9003 39.4491 81.9132 39.4749 81.939C39.5007 81.9648 39.5136 81.9978 39.5136 82.0379V83.7915L40.4549 84.5737C40.4835 84.5966 40.4993 84.6274 40.5021 84.6661C40.505 84.7048 40.495 84.7385 40.4721 84.7671Z" fill="#ABAED1"/>
<path fill-rule="evenodd" clip-rule="evenodd" d="M35.0995 101.192C35.3646 100.923 35.6869 100.718 36.0425 100.591L36.0429 100.591C37.3492 100.126 38.791 100.812 39.2602 102.13C39.7295 103.448 39.0461 104.891 37.7395 105.356C37.1334 105.573 36.4671 105.547 35.8796 105.284C35.6565 105.185 35.449 105.055 35.2634 104.896C35.2216 104.859 35.1726 104.83 35.1194 104.811C35.0662 104.793 35.0099 104.785 34.9538 104.789C34.8977 104.793 34.8428 104.808 34.7926 104.833C34.7423 104.858 34.6976 104.893 34.6611 104.936C34.6246 104.979 34.597 105.029 34.58 105.082C34.563 105.136 34.5569 105.193 34.5621 105.249C34.5672 105.305 34.5835 105.359 34.6101 105.409C34.6366 105.458 34.6728 105.502 34.7165 105.537C34.9637 105.748 35.2401 105.923 35.537 106.055C36.3223 106.406 37.2126 106.44 38.0226 106.151C39.7711 105.528 40.6789 103.6 40.0545 101.847C39.4303 100.095 37.5087 99.1744 35.7598 99.797C35.2849 99.9659 34.8542 100.24 34.5 100.599C34.2094 100.893 33.9764 101.238 33.8121 101.615L33.7768 101.562C33.7154 101.468 33.6193 101.403 33.5098 101.38C33.4003 101.358 33.2863 101.38 33.1929 101.441C33.0995 101.502 33.0343 101.598 33.0117 101.708C32.989 101.817 33.0108 101.931 33.0722 102.025L33.6057 102.835C33.6361 102.882 33.6753 102.922 33.7211 102.953C33.7669 102.984 33.8184 103.006 33.8726 103.017C33.9268 103.028 33.9827 103.028 34.0371 103.018C34.0915 103.008 34.1433 102.987 34.1895 102.956L34.1971 102.951L35.0961 102.59C35.1999 102.549 35.2829 102.467 35.3268 102.365C35.3707 102.262 35.372 102.146 35.3303 102.042C35.2887 101.938 35.2075 101.855 35.1047 101.811C35.0019 101.767 34.8859 101.766 34.7821 101.808L34.6218 101.872C34.7417 101.621 34.903 101.391 35.0995 101.192ZM37.4633 101.585C37.5751 101.585 37.6823 101.629 37.7613 101.708C37.8404 101.787 37.8848 101.894 37.8848 102.006V103.271C37.8848 103.29 37.8834 103.31 37.8808 103.329C37.8825 103.344 37.8834 103.36 37.8834 103.376C37.8834 103.488 37.839 103.595 37.76 103.674C37.6809 103.753 37.5737 103.797 37.4619 103.797H36.1973C36.0855 103.797 35.9783 103.753 35.8992 103.674C35.8202 103.595 35.7758 103.488 35.7758 103.376C35.7758 103.264 35.8202 103.157 35.8992 103.078C35.9783 102.999 36.0855 102.954 36.1973 102.954H37.0417V102.006C37.0417 101.894 37.0861 101.787 37.1652 101.708C37.2443 101.629 37.3515 101.585 37.4633 101.585Z" fill="#ABAED1"/>
<path fill-rule="evenodd" clip-rule="evenodd" d="M33.6745 118.46H40.4093C40.7811 118.46 41.0827 118.761 41.0827 119.133V124.072C41.0827 124.444 40.7811 124.746 40.4093 124.746H33.6745C33.3026 124.746 33.001 124.444 33.001 124.072V119.133C33.001 118.761 33.3026 118.46 33.6745 118.46ZM37.4904 124.072H40.4093V119.358H33.6745V124.072H33.8985V124.072H37.4904V124.072ZM37.2664 123.174C37.2664 123.098 37.2664 123.026 37.2664 122.961C37.2664 122.925 37.2664 122.891 37.2664 122.86C37.2664 122.414 36.844 122.052 36.3235 122.052C36.2642 122.052 36.2111 122.069 36.1465 122.09C36.046 122.122 35.9177 122.164 35.6949 122.164C35.4663 122.164 35.3427 122.123 35.2452 122.09C35.1818 122.069 35.1294 122.052 35.0663 122.052C34.5458 122.052 34.1234 122.414 34.1234 122.86C34.1234 122.908 34.1234 122.962 34.1233 123.022C34.1233 123.07 34.1233 123.121 34.1232 123.174H37.2664ZM39.6235 122.95H38.0521C37.9903 122.95 37.9398 122.899 37.9398 122.837V122.613C37.9398 122.551 37.9903 122.501 38.0521 122.501H39.6235C39.6853 122.501 39.7358 122.551 39.7358 122.613V122.837C39.7358 122.899 39.6853 122.95 39.6235 122.95ZM39.6235 122.052H38.0521C37.9903 122.052 37.9398 122.001 37.9398 121.939V121.715C37.9398 121.653 37.9903 121.603 38.0521 121.603H39.6235C39.6853 121.603 39.7358 121.653 39.7358 121.715V121.939C39.7358 122.001 39.6853 122.052 39.6235 122.052ZM39.6235 121.154H38.0521C37.9903 121.154 37.9398 121.103 37.9398 121.041V120.817C37.9398 120.755 37.9903 120.705 38.0521 120.705H39.6235C39.6853 120.705 39.7358 120.755 39.7358 120.817V121.041C39.7358 121.103 39.6853 121.154 39.6235 121.154ZM36.5929 120.705C36.5929 121.2 36.1902 121.603 35.6949 121.603C35.1996 121.603 34.7969 121.2 34.7969 120.705C34.7969 120.209 35.1996 119.807 35.6949 119.807C36.1902 119.807 36.5929 120.209 36.5929 120.705Z" fill="#ABAED1"/>
<path d="M40.3426 140.493V137.35C40.3426 137.317 40.3306 137.289 40.3067 137.265C40.2828 137.241 40.2544 137.229 40.2217 137.229H34.1776C34.1449 137.229 34.1166 137.241 34.0927 137.265C34.0687 137.289 34.0568 137.317 34.0568 137.35V140.493C34.0568 140.526 34.0687 140.554 34.0927 140.578C34.1166 140.602 34.1449 140.614 34.1776 140.614H40.2217C40.2544 140.614 40.2828 140.602 40.3067 140.578C40.3306 140.554 40.3426 140.526 40.3426 140.493ZM40.8261 137.35V141.46C40.8261 141.626 40.7669 141.768 40.6486 141.887C40.5302 142.005 40.3879 142.064 40.2217 142.064H38.1667C38.1667 142.158 38.1869 142.255 38.2272 142.357C38.2675 142.459 38.3078 142.549 38.348 142.625C38.3883 142.702 38.4085 142.757 38.4085 142.79C38.4085 142.855 38.3846 142.912 38.3367 142.96C38.2889 143.007 38.2322 143.031 38.1667 143.031H36.2326C36.1671 143.031 36.1105 143.007 36.0626 142.96C36.0148 142.912 35.9909 142.855 35.9909 142.79C35.9909 142.754 36.011 142.699 36.0513 142.623C36.0916 142.548 36.1319 142.46 36.1722 142.359C36.2125 142.258 36.2326 142.16 36.2326 142.064H34.1776C34.0114 142.064 33.8691 142.005 33.7508 141.887C33.6324 141.768 33.5732 141.626 33.5732 141.46V137.35C33.5732 137.184 33.6324 137.042 33.7508 136.923C33.8691 136.805 34.0114 136.746 34.1776 136.746H40.2217C40.3879 136.746 40.5302 136.805 40.6486 136.923C40.7669 137.042 40.8261 137.184 40.8261 137.35Z" fill="#ABAED1"/>
<path fill-rule="evenodd" clip-rule="evenodd" d="M37.5925 156.122C37.5669 155.967 37.5669 155.81 37.5925 155.656C37.7499 155.66 37.8913 155.584 37.9463 155.452C38.0013 155.319 37.9546 155.165 37.8406 155.057C37.9315 154.93 38.0428 154.818 38.17 154.728C38.2785 154.841 38.4319 154.888 38.5647 154.833C38.6975 154.778 38.7728 154.637 38.769 154.479C38.9232 154.454 39.0806 154.454 39.2348 154.479C39.231 154.637 39.3064 154.778 39.4391 154.833C39.5719 154.888 39.7253 154.841 39.8337 154.728C39.9609 154.818 40.0722 154.93 40.1632 155.057C40.0492 155.165 40.0025 155.319 40.0575 155.452C40.1125 155.584 40.254 155.66 40.4113 155.656C40.4369 155.81 40.4369 155.968 40.4113 156.122C40.2539 156.118 40.1125 156.193 40.0575 156.326C40.0025 156.459 40.0492 156.612 40.1632 156.721C40.0723 156.848 39.961 156.959 39.8338 157.05C39.7253 156.936 39.5719 156.889 39.4391 156.944C39.3063 156.999 39.231 157.141 39.2348 157.298C39.0806 157.324 38.9232 157.324 38.769 157.298C38.7728 157.141 38.6974 156.999 38.5647 156.944C38.4319 156.889 38.2785 156.936 38.1701 157.05C38.0429 156.959 37.9316 156.848 37.8406 156.721C37.9546 156.612 38.0013 156.459 37.9463 156.326C37.8913 156.193 37.7498 156.118 37.5925 156.122V156.122ZM39.0019 156.317C39.1155 156.317 39.2245 156.272 39.3049 156.192C39.3852 156.111 39.4304 156.002 39.4304 155.889C39.4304 155.775 39.3852 155.666 39.3049 155.586C39.2245 155.505 39.1155 155.46 39.0019 155.46C38.8883 155.46 38.7793 155.505 38.6989 155.586C38.6186 155.666 38.5734 155.775 38.5734 155.889C38.5734 156.002 38.6186 156.111 38.6989 156.192C38.7793 156.272 38.8883 156.317 39.0019 156.317ZM33.0356 158.594C32.9894 158.316 32.9894 158.033 33.0356 157.756C33.3189 157.762 33.5734 157.627 33.6723 157.388C33.7713 157.149 33.6873 156.873 33.4821 156.677C33.6457 156.448 33.846 156.248 34.0749 156.084C34.2703 156.289 34.5464 156.374 34.7855 156.275C35.0246 156.176 35.1601 155.921 35.1531 155.638C35.4308 155.592 35.7141 155.592 35.9917 155.638C35.9848 155.921 36.1205 156.176 36.3593 156.275C36.5984 156.374 36.8745 156.289 37.0697 156.084C37.2986 156.248 37.499 156.448 37.6627 156.677C37.4576 156.873 37.3735 157.149 37.4725 157.388C37.5715 157.627 37.8262 157.762 38.1093 157.755C38.1555 158.033 38.1555 158.316 38.1093 158.594C37.826 158.587 37.5715 158.723 37.4725 158.962C37.3735 159.201 37.4576 159.477 37.6627 159.672C37.4991 159.901 37.2988 160.101 37.0699 160.265C36.8745 160.06 36.5984 159.976 36.3593 160.075C36.1203 160.174 35.9848 160.428 35.9917 160.711C35.7141 160.758 35.4308 160.758 35.1531 160.711C35.1601 160.428 35.0243 160.174 34.7855 160.075C34.5464 159.976 34.2703 160.06 34.0752 160.265C33.8462 160.101 33.6458 159.901 33.4821 159.672C33.6873 159.477 33.7713 159.201 33.6723 158.962C33.5734 158.722 33.3186 158.587 33.0356 158.594V158.594ZM35.5724 158.946C35.777 158.946 35.9731 158.865 36.1178 158.72C36.2624 158.575 36.3437 158.379 36.3437 158.175C36.3437 157.97 36.2624 157.774 36.1178 157.629C35.9731 157.485 35.777 157.403 35.5724 157.403C35.3679 157.403 35.1717 157.485 35.0271 157.629C34.8824 157.774 34.8012 157.97 34.8012 158.175C34.8012 158.379 34.8824 158.575 35.0271 158.72C35.1717 158.865 35.3679 158.946 35.5724 158.946ZM37.5925 160.228C37.5669 160.382 37.5669 160.539 37.5925 160.693V160.693C37.7498 160.689 37.8913 160.765 37.9463 160.898C38.0013 161.03 37.9546 161.184 37.8406 161.292C37.9316 161.419 38.0429 161.531 38.1701 161.622C38.2785 161.508 38.4319 161.461 38.5647 161.516C38.6974 161.571 38.7728 161.712 38.769 161.87C38.9232 161.895 39.0806 161.895 39.2348 161.87C39.231 161.712 39.3063 161.571 39.4391 161.516C39.5719 161.461 39.7253 161.508 39.8338 161.622C39.961 161.531 40.0723 161.419 40.1632 161.292C40.0492 161.184 40.0025 161.03 40.0575 160.898C40.1125 160.765 40.2539 160.689 40.4113 160.693C40.4369 160.539 40.4369 160.382 40.4113 160.227C40.254 160.231 40.1125 160.156 40.0575 160.023C40.0025 159.89 40.0492 159.737 40.1632 159.628C40.0722 159.501 39.9609 159.39 39.8337 159.299C39.7253 159.413 39.5719 159.46 39.4391 159.405C39.3064 159.35 39.231 159.208 39.2348 159.051C39.0806 159.025 38.9232 159.025 38.769 159.051C38.7728 159.208 38.6975 159.35 38.5647 159.405C38.4319 159.46 38.2785 159.413 38.17 159.299C38.0428 159.39 37.9315 159.501 37.8406 159.629C37.9546 159.737 38.0013 159.89 37.9463 160.023C37.8913 160.156 37.7499 160.231 37.5925 160.228ZM39.3049 160.763C39.2245 160.844 39.1155 160.889 39.0019 160.889C38.8883 160.889 38.7793 160.844 38.6989 160.763C38.6186 160.683 38.5734 160.574 38.5734 160.46C38.5734 160.347 38.6186 160.238 38.6989 160.157C38.7793 160.077 38.8883 160.032 39.0019 160.032C39.1155 160.032 39.2245 160.077 39.3049 160.157C39.3852 160.238 39.4304 160.347 39.4304 160.46C39.4304 160.574 39.3852 160.683 39.3049 160.763Z" fill="#ABAED1"/>
<path d="M38.2958 173.193C37.8832 172.895 37.365 172.747 36.7412 172.747C36.2667 172.747 35.8661 172.851 35.5408 173.061C35.0244 173.389 34.7501 173.946 34.7168 174.731H35.9135C35.9135 174.502 35.9805 174.282 36.1137 174.069C36.2472 173.857 36.4737 173.751 36.7933 173.751C37.1182 173.751 37.3422 173.837 37.4642 174.009C37.5869 174.182 37.648 174.373 37.648 174.582C37.648 174.764 37.5568 174.931 37.4465 175.082C37.3807 175.176 37.2999 175.259 37.2073 175.326C37.2073 175.326 36.5584 175.743 36.2736 176.077C36.1086 176.271 36.0937 176.561 36.0789 176.978C36.0782 177.007 36.0894 177.069 36.1929 177.069H37.1233C37.2159 177.069 37.2351 177 37.2362 176.97C37.2427 176.818 37.2594 176.74 37.2872 176.653C37.3393 176.487 37.4819 176.343 37.6415 176.219L37.9708 175.992C38.2683 175.76 38.5053 175.57 38.6103 175.421C38.789 175.176 38.915 174.874 38.915 174.516C38.9146 173.932 38.7083 173.491 38.2958 173.193ZM36.722 177.786C36.3098 177.773 35.9696 178.059 35.9566 178.506C35.9439 178.953 36.2671 179.249 36.6796 179.261C37.1099 179.273 37.441 178.997 37.4544 178.55C37.4667 178.103 37.1526 177.799 36.722 177.786Z" fill="#ABAED1"/>
<rect width="31.6005" height="95.9444" transform="translate(21.2002 431.356)" fill="#282A48"/>
<path d="M35.2637 442.966C35.1628 443.075 35.1078 443.218 35.1104 443.366C35.1131 443.514 35.173 443.655 35.2777 443.76C35.3824 443.865 35.5237 443.925 35.6717 443.927C35.8197 443.93 35.963 443.875 36.0714 443.774L38.5476 441.298C38.6546 441.191 38.7147 441.045 38.7147 440.894C38.7147 440.742 38.6546 440.597 38.5476 440.49L36.0714 438.014C35.963 437.913 35.8197 437.858 35.6717 437.861C35.5237 437.863 35.3824 437.923 35.2777 438.028C35.173 438.132 35.1131 438.274 35.1104 438.422C35.1078 438.57 35.1628 438.713 35.2637 438.821L37.3361 440.894L35.2637 442.966Z" fill="#ABAED1"/>
<path d="M34.1437 462.213C34.1437 462.213 33.5723 462.213 33.5723 461.642C33.5723 461.071 34.1437 458.785 37.0009 458.785C39.8581 458.785 40.4295 461.071 40.4295 461.642C40.4295 462.213 39.8581 462.213 39.8581 462.213H34.1437ZM37.0009 458.785C37.4556 458.785 37.8916 458.604 38.2131 458.283C38.5346 457.961 38.7152 457.525 38.7152 457.071C38.7152 456.616 38.5346 456.18 38.2131 455.858C37.8916 455.537 37.4556 455.356 37.0009 455.356C36.5462 455.356 36.1102 455.537 35.7887 455.858C35.4672 456.18 35.2866 456.616 35.2866 457.071C35.2866 457.525 35.4672 457.961 35.7887 458.283C36.1102 458.604 36.5462 458.785 37.0009 458.785Z" fill="#ABAED1"/>
<path d="M39.5126 477.39V479.453C39.5126 479.528 39.4854 479.592 39.431 479.647C39.3765 479.701 39.312 479.728 39.2375 479.728H37.5871V478.078H36.4868V479.728H34.8364C34.7619 479.728 34.6974 479.701 34.643 479.647C34.5885 479.592 34.5613 479.528 34.5613 479.453V477.39C34.5613 477.387 34.562 477.383 34.5634 477.377C34.5649 477.371 34.5656 477.367 34.5656 477.364L37.037 475.327L39.5083 477.364C39.5112 477.37 39.5126 477.379 39.5126 477.39ZM40.4711 477.094L40.2046 477.412C40.1817 477.437 40.1516 477.453 40.1143 477.459H40.1015C40.0642 477.459 40.0341 477.449 40.0112 477.429L37.037 474.949L34.0627 477.429C34.0283 477.452 33.994 477.462 33.9596 477.459C33.9223 477.453 33.8922 477.437 33.8693 477.412L33.6028 477.094C33.5799 477.065 33.5699 477.031 33.5727 476.993C33.5756 476.954 33.5914 476.923 33.62 476.9L36.7103 474.326C36.802 474.251 36.9109 474.214 37.037 474.214C37.163 474.214 37.2719 474.251 37.3636 474.326L38.4123 475.202V474.364C38.4123 474.324 38.4252 474.291 38.451 474.265C38.4768 474.24 38.5097 474.227 38.5499 474.227H39.3751C39.4152 474.227 39.4482 474.24 39.4739 474.265C39.4997 474.291 39.5126 474.324 39.5126 474.364V476.118L40.4539 476.9C40.4825 476.923 40.4983 476.954 40.5012 476.993C40.504 477.031 40.494 477.065 40.4711 477.094Z" fill="#ABAED1"/>
<path fill-rule="evenodd" clip-rule="evenodd" d="M39.5555 493.564C39.4067 493.415 39.1655 493.415 39.0167 493.564L37.8739 494.707C37.7251 494.855 37.7251 495.097 37.8739 495.245C38.0226 495.394 38.2639 495.394 38.4126 495.245L38.9053 494.753V497.835H35.4767C35.2663 497.835 35.0957 498.006 35.0957 498.216C35.0957 498.426 35.2663 498.597 35.4767 498.597H39.2862C39.4966 498.597 39.6672 498.426 39.6672 498.216V494.753L40.1596 495.245C40.3084 495.394 40.5496 495.394 40.6984 495.245C40.8472 495.097 40.8472 494.855 40.6984 494.707L39.5555 493.564Z" fill="#ABAED1"/>
<path fill-rule="evenodd" clip-rule="evenodd" d="M35.0951 492.5C34.8847 492.5 34.7141 492.67 34.7141 492.88V496.151L34.2216 495.659C34.0729 495.51 33.8316 495.51 33.6829 495.659C33.5341 495.808 33.5341 496.049 33.6829 496.198L34.8257 497.341C34.9745 497.489 35.2157 497.489 35.3645 497.341L36.5074 496.198C36.6562 496.049 36.6562 495.808 36.5074 495.659C36.3586 495.51 36.1174 495.51 35.9686 495.659L35.476 496.151V493.261H38.9047C39.1151 493.261 39.2856 493.091 39.2856 492.88C39.2856 492.67 39.1151 492.5 38.9047 492.5H35.0951Z" fill="#ABAED1"/>
<path d="M38.0295 517.072C38.1204 517.072 38.2076 517.035 38.2719 516.971C38.3362 516.907 38.3723 516.82 38.3723 516.729C38.3723 516.638 38.3362 516.551 38.2719 516.486C38.2076 516.422 38.1204 516.386 38.0295 516.386H35.1723C34.9298 516.386 34.6972 516.29 34.5258 516.118C34.3543 515.947 34.258 515.714 34.258 515.472V511.814C34.258 511.572 34.3543 511.339 34.5258 511.168C34.6972 510.996 34.9298 510.9 35.1723 510.9H38.0295C38.1204 510.9 38.2076 510.864 38.2719 510.8C38.3362 510.735 38.3723 510.648 38.3723 510.557C38.3723 510.466 38.3362 510.379 38.2719 510.315C38.2076 510.25 38.1204 510.214 38.0295 510.214H35.1723C34.7479 510.214 34.341 510.383 34.0409 510.683C33.7408 510.983 33.5723 511.39 33.5723 511.814V515.472C33.5723 515.896 33.7408 516.303 34.0409 516.603C34.341 516.903 34.7479 517.072 35.1723 517.072H38.0295ZM38.4825 511.905C38.5156 511.875 38.5544 511.851 38.5966 511.835C38.6389 511.82 38.6838 511.813 38.7288 511.815C38.7738 511.816 38.818 511.827 38.8589 511.846C38.8998 511.865 38.9365 511.891 38.9671 511.925L40.3385 513.41C40.3971 513.474 40.4296 513.557 40.4296 513.643C40.4296 513.729 40.3971 513.812 40.3385 513.876L38.9671 515.361C38.9053 515.428 38.8196 515.468 38.7287 515.471C38.6378 515.475 38.5493 515.442 38.4825 515.38C38.4158 515.318 38.3763 515.233 38.3728 515.142C38.3693 515.051 38.402 514.962 38.4638 514.896L39.304 513.985H35.7437C35.6528 513.985 35.5656 513.949 35.5013 513.885C35.437 513.821 35.4009 513.733 35.4009 513.643C35.4009 513.552 35.437 513.464 35.5013 513.4C35.5656 513.336 35.6528 513.3 35.7437 513.3H39.3036L38.4633 512.389C38.4328 512.356 38.409 512.318 38.3934 512.275C38.3778 512.233 38.3707 512.188 38.3725 512.143C38.3743 512.098 38.3849 512.054 38.4038 512.013C38.4227 511.972 38.4494 511.935 38.4825 511.905V511.905Z" fill="#ABAED1"/>
<rect width="31.6005" height="31.6005" transform="translate(21.2002 21.2007)" fill="#282A48"/>
<g clip-path="url(#clip0_325_9923)">
<path d="M26.3707 37.7521C26.5613 37.8923 26.7474 38.0269 26.931 38.1645C26.988 38.206 27.0309 38.2641 27.0538 38.3309C27.0768 38.3977 27.0787 38.47 27.0593 38.538C27.0399 38.606 27.0001 38.6662 26.9454 38.7107C26.8906 38.7551 26.8236 38.7814 26.7534 38.7862C26.6727 38.7929 26.5922 38.7698 26.5272 38.7211C26.0975 38.4069 25.6684 38.0916 25.2397 37.7753C25.1779 37.7331 25.1317 37.6717 25.108 37.6005C25.0844 37.5293 25.0846 37.4523 25.1087 37.3812C25.1328 37.3102 25.1794 37.2491 25.2414 37.2072C25.3034 37.1654 25.3773 37.1452 25.4518 37.1496C25.6023 37.1496 25.7528 37.1496 25.8987 37.1466C26.1691 37.137 26.3502 36.9953 26.4279 36.7342C26.4868 36.5522 26.4728 36.3543 26.3888 36.1826C26.2945 35.9875 26.1335 35.9008 25.9223 35.8988C25.5481 35.8957 25.1745 35.8988 24.8008 35.8988C24.7907 35.9 24.7806 35.9018 24.7707 35.9043V35.99C24.7707 36.8085 24.7707 37.6267 24.7707 38.4449C24.7711 38.5234 24.7447 38.5998 24.6958 38.6611C24.6469 38.7224 24.5786 38.765 24.5022 38.7817C24.4258 38.7984 24.346 38.7883 24.2762 38.7529C24.2064 38.7176 24.1507 38.6592 24.1186 38.5875C24.099 38.5409 24.0886 38.4909 24.088 38.4403C24.088 37.4794 24.088 36.5182 24.088 35.5569C24.0867 35.5124 24.0942 35.468 24.1102 35.4264C24.1261 35.3848 24.1502 35.3469 24.1809 35.3147C24.2117 35.2826 24.2485 35.257 24.2892 35.2394C24.3299 35.2217 24.3737 35.2125 24.4181 35.2121C24.9362 35.209 25.4543 35.203 25.973 35.2121C26.5383 35.2237 26.9912 35.6124 27.1111 36.1761C27.1993 36.592 27.1346 36.9827 26.8879 37.3357C26.7725 37.5003 26.6161 37.6315 26.4344 37.7163L26.3843 37.74C26.3788 37.742 26.3763 37.7466 26.3707 37.7521Z" fill="#ABAED1"/>
<path d="M42.937 37.8564H41.2472C41.2472 37.9673 41.2472 38.0752 41.2472 38.1826C41.2472 38.2773 41.2497 38.3716 41.2472 38.4659C41.2412 38.5534 41.202 38.6353 41.1377 38.6947C41.0734 38.754 40.9889 38.7862 40.9016 38.7848C40.8143 38.7833 40.731 38.7482 40.6687 38.6867C40.6064 38.6252 40.57 38.542 40.567 38.4543C40.5645 37.8806 40.5495 37.3063 40.571 36.7336C40.5911 36.2032 40.7927 35.7474 41.2492 35.4413C41.524 35.2573 41.835 35.2003 42.1605 35.2109C42.9044 35.2361 43.435 35.6949 43.584 36.4477C43.6095 36.5764 43.6228 36.7072 43.6236 36.8384C43.6277 37.3703 43.6236 37.9027 43.6236 38.4352C43.6257 38.5142 43.6006 38.5915 43.5527 38.6542C43.5047 38.7169 43.4368 38.7611 43.3603 38.7795C43.2838 38.7981 43.2032 38.7894 43.1323 38.7548C43.0615 38.7202 43.0048 38.6619 42.9721 38.5899C42.9512 38.5392 42.9402 38.485 42.9395 38.4301C42.937 38.241 42.937 38.0545 42.937 37.8564ZM42.937 37.1611C42.932 36.9246 42.957 36.6922 42.8808 36.4658C42.7885 36.1941 42.63 35.9924 42.3381 35.9248C42.1788 35.8886 42.0134 35.8886 41.8541 35.9248C41.6826 35.959 41.5312 36.0593 41.4322 36.2042C41.2316 36.4966 41.2386 36.8263 41.2542 37.1621L42.937 37.1611Z" fill="#ABAED1"/>
<path d="M45.0718 38.7888C44.833 38.7888 44.5948 38.7888 44.356 38.7888C44.2726 38.7907 44.1914 38.7618 44.1277 38.7075C44.0641 38.6532 44.0224 38.5774 44.0107 38.4943C43.9989 38.4113 44.0179 38.3268 44.064 38.2568C44.1101 38.1869 44.1801 38.1363 44.2607 38.1148C44.2987 38.1058 44.3376 38.1019 44.3766 38.1032C44.8029 38.1032 45.2293 38.1032 45.6556 38.1032C45.7845 38.1058 45.9122 38.0778 46.0283 38.0215C46.1612 37.9544 46.2199 37.84 46.2064 37.6786C46.1913 37.4956 46.1351 37.4069 45.9741 37.3721C45.8493 37.3472 45.7222 37.3361 45.5949 37.3388C45.284 37.3388 44.972 37.3686 44.665 37.2884C44.4313 37.2351 44.2191 37.1121 44.0561 36.9355C43.701 36.5387 43.7025 35.61 44.513 35.3115C44.6897 35.2457 44.8764 35.2116 45.0648 35.2107H46.2826C46.3708 35.2104 46.4556 35.2445 46.5192 35.3059C46.5829 35.3672 46.6204 35.4509 46.6239 35.5394C46.6274 35.6279 46.5966 35.7144 46.538 35.7806C46.4794 35.8468 46.3976 35.8876 46.3097 35.8944C46.1798 35.9019 46.0489 35.8969 45.918 35.8974C45.6085 35.8974 45.299 35.8974 44.99 35.907C44.8857 35.9166 44.7839 35.9444 44.6891 35.9891C44.5567 36.0451 44.5175 36.1636 44.5191 36.3012C44.517 36.3592 44.5331 36.4164 44.5651 36.4648C44.597 36.5132 44.6432 36.5503 44.6971 36.571C44.8666 36.6486 45.0457 36.6567 45.2283 36.6572C45.4841 36.6572 45.7399 36.6229 45.9962 36.6632C46.4587 36.7358 46.7917 37.0353 46.8725 37.4608C46.9944 38.1067 46.6453 38.626 45.9997 38.7515C45.8803 38.7726 45.7594 38.7844 45.6381 38.7868C45.448 38.7929 45.2599 38.7888 45.0718 38.7888Z" fill="#ABAED1"/>
<path d="M30.6841 37.1238C30.6651 37.6542 30.4163 38.1861 29.862 38.5415C29.1663 38.9882 28.2856 38.8218 27.7554 38.1604C27.1876 37.4545 27.2343 36.371 27.8607 35.7151C28.6357 34.9044 29.9212 35.0955 30.4624 36.1023C30.6134 36.3836 30.6856 36.6846 30.6841 37.1238ZM28.0403 36.9771C28.0362 37.2047 28.0963 37.4288 28.2138 37.6234C28.5333 38.1447 29.1774 38.2557 29.6208 37.8669C30.0933 37.4525 30.1279 36.6569 29.6935 36.2031C29.3093 35.7998 28.7265 35.7968 28.3513 36.1971C28.1522 36.4076 28.041 36.6867 28.0403 36.9771Z" fill="#ABAED1"/>
<path d="M38.0171 36.6539H38.328C38.5412 36.6539 38.7549 36.6539 38.9681 36.6539C39.0142 36.6521 39.0602 36.6597 39.1033 36.6763C39.1464 36.6928 39.1858 36.7179 39.2191 36.7501C39.2523 36.7822 39.2788 36.8208 39.2969 36.8635C39.3149 36.9062 39.3242 36.9521 39.3242 36.9985C39.3242 37.0449 39.3149 37.0908 39.2969 37.1335C39.2788 37.1762 39.2523 37.2148 39.2191 37.247C39.1858 37.2792 39.1464 37.3043 39.1033 37.3208C39.0602 37.3373 39.0142 37.3449 38.9681 37.3431H38.0171C38.0526 37.5216 38.1438 37.6841 38.2774 37.807C38.4933 37.9976 38.7714 38.1019 39.0588 38.0999C39.3728 38.107 39.6868 38.0999 40.0013 38.0999C40.0461 38.0994 40.0905 38.1078 40.1321 38.1245C40.1737 38.1413 40.2116 38.1662 40.2436 38.1976C40.2756 38.2291 40.3011 38.2666 40.3187 38.308C40.3363 38.3495 40.3456 38.3939 40.3461 38.439C40.3466 38.484 40.3383 38.5287 40.3216 38.5704C40.3049 38.6122 40.2802 38.6503 40.2489 38.6825C40.2176 38.7147 40.1803 38.7403 40.1391 38.758C40.0979 38.7757 40.0536 38.7851 40.0088 38.7856C39.6517 38.7856 39.2921 38.8052 38.9365 38.777C38.2919 38.7266 37.7713 38.4493 37.4703 37.8448C37.2993 37.5009 37.2697 37.1304 37.3053 36.7527C37.3319 36.3942 37.475 36.0545 37.7126 35.7857C37.9973 35.469 38.3898 35.2711 38.8126 35.2311C39.0774 35.2004 39.3477 35.2145 39.6151 35.2105C39.746 35.2105 39.8769 35.2105 40.0073 35.2105C40.0532 35.2087 40.0991 35.2163 40.142 35.2327C40.185 35.2491 40.2242 35.2741 40.2573 35.3062C40.2904 35.3382 40.3167 35.3766 40.3347 35.4191C40.3527 35.4616 40.362 35.5074 40.362 35.5536C40.362 35.5997 40.3527 35.6455 40.3347 35.688C40.3167 35.7305 40.2904 35.7689 40.2573 35.8009C40.2242 35.833 40.185 35.858 40.142 35.8744C40.0991 35.8908 40.0532 35.8984 40.0073 35.8966C39.6863 35.8966 39.3653 35.8896 39.0443 35.8966C38.7117 35.9062 38.4148 36.0131 38.1916 36.2768C38.1031 36.386 38.0431 36.5156 38.0171 36.6539Z" fill="#ABAED1"/>
<path d="M34.0618 36.4175C34.0618 36.6898 34.0713 36.962 34.0618 37.2333C34.0407 37.7198 33.8807 38.1489 33.4985 38.4695C33.1976 38.7216 32.8399 38.8003 32.4577 38.7867C32.1412 38.7847 31.8341 38.6785 31.5835 38.4841C31.274 38.2371 31.1125 37.9028 31.0383 37.5212C31.0177 37.4104 31.0076 37.298 31.0082 37.1854C31.0052 36.6414 31.0082 36.0974 31.0082 35.5534C31.0085 35.4712 31.0382 35.3918 31.092 35.3299C31.1457 35.2679 31.2199 35.2275 31.3009 35.2161C31.3818 35.2046 31.4642 35.2229 31.5329 35.2675C31.6016 35.3121 31.6519 35.3802 31.6748 35.4591C31.687 35.5085 31.6924 35.5594 31.6908 35.6103C31.6908 36.1427 31.6878 36.6752 31.6933 37.2076C31.6933 37.4733 31.7751 37.7183 31.9697 37.9084C32.1427 38.0773 32.3644 38.11 32.5947 38.102C33.0616 38.0803 33.2818 37.7959 33.3621 37.377C33.3741 37.3089 33.3797 37.2399 33.3786 37.1708C33.3786 36.6384 33.3786 36.1059 33.3786 35.5735C33.3786 35.2922 33.6585 35.1198 33.8938 35.2599C33.9466 35.2887 33.9905 35.3316 34.0206 35.3839C34.0506 35.4363 34.0656 35.496 34.0638 35.5564C34.0623 35.8412 34.0618 36.1296 34.0618 36.4175Z" fill="#ABAED1"/>
<path d="M35.4581 35.8976H35.3628C35.112 35.8976 34.8612 35.8976 34.6135 35.8976C34.5675 35.8994 34.5217 35.8918 34.4788 35.8754C34.4358 35.8589 34.3966 35.8339 34.3635 35.8019C34.3304 35.7699 34.3041 35.7315 34.2861 35.689C34.2681 35.6464 34.2588 35.6007 34.2588 35.5545C34.2588 35.5083 34.2681 35.4626 34.2861 35.4201C34.3041 35.3776 34.3304 35.3392 34.3635 35.3071C34.3966 35.2751 34.4358 35.2501 34.4788 35.2337C34.5217 35.2172 34.5675 35.2097 34.6135 35.2114C35.4026 35.2114 36.1914 35.2114 36.9799 35.2114C37.0258 35.2099 37.0716 35.2177 37.1145 35.2343C37.1573 35.2509 37.1964 35.2761 37.2294 35.3083C37.2623 35.3405 37.2885 35.379 37.3063 35.4216C37.3241 35.4642 37.3332 35.5099 37.333 35.5561C37.3328 35.6023 37.3233 35.648 37.3051 35.6904C37.287 35.7328 37.2605 35.7711 37.2272 35.803C37.194 35.8349 37.1547 35.8597 37.1117 35.876C37.0686 35.8922 37.0228 35.8996 36.9769 35.8976C36.7261 35.8976 36.4753 35.8976 36.227 35.8976H36.1388V35.9874C36.1388 36.8055 36.1388 37.6236 36.1388 38.4417C36.1394 38.5244 36.1102 38.6045 36.0565 38.6672C36.0029 38.7299 35.9285 38.7709 35.847 38.7826C35.7656 38.7944 35.6827 38.7761 35.6137 38.7311C35.5447 38.6861 35.4942 38.6175 35.4717 38.538C35.4598 38.4885 35.4546 38.4376 35.4561 38.3867C35.4561 37.5891 35.4561 36.7917 35.4561 35.9944L35.4581 35.8976Z" fill="#ABAED1"/>
<path d="M48.3816 36.4573L48.8149 35.9305C48.9759 35.7348 49.1359 35.5392 49.2969 35.3441C49.3246 35.3066 49.3596 35.2751 49.3998 35.2515C49.4399 35.228 49.4844 35.2129 49.5306 35.2072C49.5767 35.2015 49.6235 35.2052 49.6681 35.2182C49.7128 35.2313 49.7543 35.2533 49.7903 35.2829C49.8262 35.3126 49.8558 35.3492 49.8771 35.3907C49.8985 35.4322 49.9113 35.4776 49.9147 35.5242C49.9181 35.5708 49.9121 35.6176 49.8969 35.6618C49.8818 35.706 49.8578 35.7466 49.8266 35.7812C49.473 36.2138 49.1169 36.6444 48.7643 37.0775C48.7397 37.1093 48.726 37.1482 48.7251 37.1884C48.7221 37.6058 48.7251 38.0228 48.7251 38.4403C48.727 38.517 48.703 38.5921 48.657 38.6533C48.611 38.7145 48.5457 38.7583 48.4718 38.7775C48.3981 38.7983 48.3196 38.7929 48.2494 38.7624C48.1791 38.7318 48.1215 38.6779 48.0861 38.6097C48.0584 38.5496 48.0438 38.4843 48.0435 38.4181C48.04 38.0147 48.0435 37.6114 48.0435 37.208C48.046 37.1526 48.0269 37.0984 47.9903 37.0568C47.6379 36.6346 47.2878 36.2109 46.94 35.7858C46.8837 35.7224 46.8525 35.6403 46.8525 35.5553C46.8525 35.4704 46.8837 35.3883 46.94 35.3249C46.9935 35.2637 47.0671 35.2238 47.1474 35.2126C47.2277 35.2014 47.3093 35.2196 47.3774 35.2639C47.4219 35.2962 47.4616 35.3348 47.4953 35.3784C47.7882 35.7353 48.0811 36.0913 48.3816 36.4573Z" fill="#ABAED1"/>
</g>
<defs>
<clipPath id="clip0_325_9923">
<rect width="25.8244" height="3.58672" fill="white" transform="translate(24.0879 35.2075)"/>
</clipPath>
</defs>
</svg>
