<svg width="624" height="403" viewBox="0 0 624 403" fill="none" xmlns="http://www.w3.org/2000/svg">
<rect x="0.836042" y="0.836042" width="622.291" height="401.3" rx="14.2127" fill="#0D0E18" fill-opacity="0.59" style="mix-blend-mode:multiply"/>
<rect x="0.836042" y="0.836042" width="622.291" height="401.3" rx="14.2127" stroke="#ABAED1" stroke-width="1.67208"/>
<rect x="12.3613" y="12.3608" width="29.6667" height="378.25" rx="3.70833" fill="#282A48"/>
<rect width="23.4092" height="98.1661" transform="translate(15.7051 39.1143)" fill="#282A48"/>
<path d="M28.0471 47.1152H26.7755V48.596H25.292V49.8676H26.7755V51.3484H28.0471V49.8676H29.5306V48.596H28.0471V47.1152Z" fill="#ABAED1"/>
<path d="M29.2706 63.0131V64.5414C29.2706 64.5965 29.2505 64.6443 29.2101 64.6846C29.1698 64.725 29.1221 64.7451 29.0669 64.7451H27.8442V63.5225H27.0292V64.7451H25.8065C25.7514 64.7451 25.7036 64.725 25.6633 64.6846C25.6229 64.6443 25.6028 64.5965 25.6028 64.5414V63.0131C25.6028 63.0109 25.6033 63.0078 25.6044 63.0035C25.6054 62.9993 25.606 62.9961 25.606 62.994L27.4367 61.4848L29.2675 62.994C29.2696 62.9982 29.2706 63.0046 29.2706 63.0131ZM29.9807 62.7934L29.7833 63.029C29.7663 63.0481 29.744 63.0598 29.7164 63.064H29.7068C29.6792 63.064 29.657 63.0566 29.64 63.0417L27.4367 61.2046L25.2334 63.0417C25.208 63.0587 25.1825 63.0661 25.157 63.064C25.1294 63.0598 25.1071 63.0481 25.0902 63.029L24.8928 62.7934C24.8758 62.7722 24.8683 62.7472 24.8705 62.7186C24.8726 62.6899 24.8843 62.6671 24.9055 62.6501L27.1947 60.7429C27.2627 60.6878 27.3433 60.6602 27.4367 60.6602C27.5301 60.6602 27.6108 60.6878 27.6787 60.7429L28.4556 61.3925V60.7716C28.4556 60.7419 28.4651 60.7175 28.4842 60.6984C28.5033 60.6793 28.5277 60.6697 28.5574 60.6697H29.1688C29.1985 60.6697 29.2229 60.6793 29.242 60.6984C29.2611 60.7175 29.2706 60.7419 29.2706 60.7716V62.0706L29.9679 62.6501C29.9891 62.6671 30.0008 62.6899 30.0029 62.7186C30.0051 62.7472 29.9976 62.7722 29.9807 62.7934Z" fill="#ABAED1"/>
<path fill-rule="evenodd" clip-rule="evenodd" d="M26.001 74.961C26.1974 74.762 26.4362 74.6099 26.6996 74.5162L26.6998 74.5164C27.6675 74.1717 28.7356 74.6801 29.0831 75.6563C29.4308 76.6323 28.9246 77.7017 27.9567 78.0462C27.5077 78.2067 27.0141 78.1876 26.5789 77.9929C26.4136 77.9196 26.2599 77.8227 26.1224 77.7053C26.0914 77.6775 26.0551 77.6561 26.0157 77.6425C25.9764 77.6289 25.9346 77.6233 25.8931 77.6261C25.8515 77.6289 25.8109 77.6399 25.7736 77.6586C25.7364 77.6773 25.7033 77.7033 25.6762 77.735C25.6492 77.7667 25.6288 77.8035 25.6162 77.8433C25.6036 77.883 25.599 77.9248 25.6029 77.9663C25.6067 78.0078 25.6188 78.0481 25.6384 78.0849C25.6581 78.1216 25.6849 78.1541 25.7173 78.1803C25.9004 78.3367 26.1051 78.4658 26.3251 78.5637C26.9068 78.8235 27.5664 78.8489 28.1664 78.6346C29.4616 78.1733 30.1341 76.7452 29.6716 75.4466C29.2092 74.1484 27.7857 73.4667 26.4901 73.9279C26.1383 74.053 25.8193 74.256 25.5569 74.5217C25.3417 74.7395 25.1692 74.9948 25.0475 75.2744L25.0215 75.2349C24.976 75.1657 24.9049 75.1174 24.8237 75.1007C24.7426 75.0839 24.6582 75.1001 24.589 75.1456C24.5198 75.1911 24.4715 75.2622 24.4547 75.3433C24.4379 75.4244 24.4541 75.5089 24.4996 75.5781L24.8947 76.1786C24.9173 76.2129 24.9463 76.2424 24.9802 76.2654C25.0142 76.2884 25.0523 76.3046 25.0925 76.3129C25.1326 76.3212 25.174 76.3215 25.2143 76.3138C25.2546 76.3061 25.293 76.2905 25.3273 76.268L25.3319 76.2648L25.9988 75.9972C26.0756 75.9663 26.1371 75.9062 26.1696 75.83C26.2021 75.7539 26.2031 75.6679 26.1722 75.5911C26.1414 75.5142 26.0813 75.4528 26.0051 75.4202C25.9289 75.3877 25.843 75.3867 25.7661 75.4176L25.647 75.4654C25.7358 75.2791 25.8553 75.1085 26.001 74.961ZM27.751 75.2518C27.8338 75.2518 27.9132 75.2847 27.9718 75.3433C28.0303 75.4019 28.0632 75.4813 28.0632 75.5641V76.5009C28.0632 76.5151 28.0623 76.5291 28.0604 76.543C28.0618 76.5549 28.0625 76.5669 28.0625 76.579C28.0625 76.6619 28.0296 76.7413 27.971 76.7999C27.9124 76.8584 27.833 76.8913 27.7502 76.8913H26.8134C26.7306 76.8913 26.6512 76.8584 26.5926 76.7999C26.534 76.7413 26.5011 76.6619 26.5011 76.579C26.5011 76.4962 26.534 76.4168 26.5926 76.3582C26.6512 76.2997 26.7306 76.2668 26.8134 76.2668H27.4387V75.5641C27.4387 75.4813 27.4716 75.4019 27.5302 75.3433C27.5887 75.2847 27.6681 75.2518 27.751 75.2518Z" fill="#ABAED1"/>
<path fill-rule="evenodd" clip-rule="evenodd" d="M24.9452 87.752H29.9342C30.2097 87.752 30.4331 87.9754 30.4331 88.2509V91.9095C30.4331 92.1849 30.2097 92.4084 29.9342 92.4084H24.9452C24.6698 92.4084 24.4463 92.1849 24.4463 91.9095V88.2509C24.4463 87.9754 24.6698 87.752 24.9452 87.752ZM27.5977 91.9095H29.9342V88.4172H24.9452V91.9095H25.2861C25.2861 91.9095 25.2861 91.9095 25.2861 91.9095H27.5977C27.5977 91.9095 27.5977 91.9095 27.5977 91.9095ZM27.606 91.2442C27.6061 91.1881 27.606 91.1344 27.606 91.0863C27.606 91.0595 27.606 91.0343 27.606 91.0115C27.606 90.6809 27.2932 90.4128 26.9075 90.4128C26.8636 90.4128 26.8243 90.4255 26.7764 90.441C26.702 90.4651 26.607 90.4959 26.4419 90.4959C26.2726 90.4959 26.181 90.4654 26.1088 90.4414C26.0618 90.4257 26.023 90.4128 25.9763 90.4128C25.5906 90.4128 25.2778 90.6809 25.2778 91.0115C25.2778 91.0468 25.2778 91.0875 25.2777 91.1316C25.2777 91.1672 25.2777 91.2051 25.2776 91.2442H27.606ZM29.3522 91.078H28.1881C28.1423 91.078 28.1049 91.0406 28.1049 90.9948V90.8285C28.1049 90.7828 28.1423 90.7454 28.1881 90.7454H29.3522C29.3979 90.7454 29.4353 90.7828 29.4353 90.8285V90.9948C29.4353 91.0406 29.3979 91.078 29.3522 91.078ZM29.3522 90.4128H28.1881C28.1423 90.4128 28.1049 90.3754 28.1049 90.3296V90.1633C28.1049 90.1176 28.1423 90.0802 28.1881 90.0802H29.3522C29.3979 90.0802 29.4353 90.1176 29.4353 90.1633V90.3296C29.4353 90.3754 29.3979 90.4128 29.3522 90.4128ZM29.3522 89.7476H28.1881C28.1423 89.7476 28.1049 89.7102 28.1049 89.6644V89.4981C28.1049 89.4524 28.1423 89.415 28.1881 89.415H29.3522C29.3979 89.415 29.4353 89.4524 29.4353 89.4981V89.6644C29.4353 89.7102 29.3979 89.7476 29.3522 89.7476ZM27.1071 89.415C27.1071 89.7819 26.8088 90.0802 26.4419 90.0802C26.075 90.0802 25.7767 89.7819 25.7767 89.415C25.7767 89.0481 26.075 88.7498 26.4419 88.7498C26.8088 88.7498 27.1071 89.0481 27.1071 89.415Z" fill="#ABAED1"/>
<path d="M29.8847 104.075V101.747C29.8847 101.722 29.8759 101.701 29.8582 101.684C29.8404 101.666 29.8194 101.657 29.7952 101.657H25.3179C25.2936 101.657 25.2726 101.666 25.2549 101.684C25.2372 101.701 25.2283 101.722 25.2283 101.747V104.075C25.2283 104.099 25.2372 104.12 25.2549 104.138C25.2726 104.155 25.2936 104.164 25.3179 104.164H29.7952C29.8194 104.164 29.8404 104.155 29.8582 104.138C29.8759 104.12 29.8847 104.099 29.8847 104.075ZM30.2429 101.747V104.791C30.2429 104.914 30.1991 105.02 30.1114 105.107C30.0237 105.195 29.9183 105.239 29.7952 105.239H28.2729C28.2729 105.308 28.2878 105.38 28.3177 105.456C28.3475 105.531 28.3774 105.598 28.4072 105.654C28.4371 105.711 28.452 105.752 28.452 105.776C28.452 105.825 28.4343 105.867 28.3988 105.902C28.3634 105.938 28.3214 105.955 28.2729 105.955H26.8401C26.7916 105.955 26.7497 105.938 26.7142 105.902C26.6788 105.867 26.6611 105.825 26.6611 105.776C26.6611 105.75 26.676 105.709 26.7058 105.653C26.7357 105.597 26.7655 105.532 26.7954 105.457C26.8252 105.383 26.8401 105.31 26.8401 105.239H25.3179C25.1947 105.239 25.0893 105.195 25.0016 105.107C24.914 105.02 24.8701 104.914 24.8701 104.791V101.747C24.8701 101.623 24.914 101.518 25.0016 101.43C25.0893 101.343 25.1947 101.299 25.3179 101.299H29.7952C29.9183 101.299 30.0237 101.343 30.1114 101.43C30.1991 101.518 30.2429 101.623 30.2429 101.747Z" fill="#ABAED1"/>
<path fill-rule="evenodd" clip-rule="evenodd" d="M27.8476 115.653C27.8287 115.538 27.8287 115.422 27.8476 115.308C27.9642 115.31 28.069 115.255 28.1097 115.156C28.1504 115.058 28.1158 114.944 28.0314 114.864C28.0987 114.77 28.1812 114.687 28.2754 114.62C28.3558 114.704 28.4694 114.739 28.5678 114.698C28.6662 114.657 28.722 114.553 28.7191 114.436C28.8334 114.417 28.95 114.417 29.0642 114.436C29.0614 114.553 29.1172 114.657 29.2155 114.698C29.3139 114.739 29.4276 114.704 29.5079 114.62C29.6021 114.687 29.6846 114.77 29.7519 114.864C29.6675 114.944 29.6329 115.058 29.6736 115.156C29.7144 115.255 29.8192 115.31 29.9357 115.308C29.9547 115.422 29.9547 115.538 29.9357 115.653C29.8191 115.65 29.7144 115.706 29.6736 115.804C29.6329 115.902 29.6675 116.016 29.7519 116.096C29.6846 116.191 29.6022 116.273 29.508 116.34C29.4276 116.256 29.3139 116.221 29.2155 116.262C29.1171 116.303 29.0614 116.408 29.0642 116.524C28.95 116.543 28.8334 116.543 28.7191 116.524C28.722 116.408 28.6661 116.303 28.5678 116.262C28.4694 116.221 28.3558 116.256 28.2755 116.34C28.1813 116.273 28.0988 116.191 28.0314 116.096C28.1158 116.016 28.1504 115.902 28.1097 115.804C28.069 115.706 27.9641 115.65 27.8476 115.653V115.653ZM28.8917 115.798C28.9759 115.798 29.0566 115.764 29.1161 115.705C29.1756 115.645 29.2091 115.564 29.2091 115.48C29.2091 115.396 29.1756 115.315 29.1161 115.256C29.0566 115.196 28.9759 115.163 28.8917 115.163C28.8075 115.163 28.7268 115.196 28.6672 115.256C28.6077 115.315 28.5743 115.396 28.5743 115.48C28.5743 115.564 28.6077 115.645 28.6672 115.705C28.7268 115.764 28.8075 115.798 28.8917 115.798ZM24.4719 117.484C24.4377 117.278 24.4377 117.069 24.4719 116.863C24.6818 116.868 24.8703 116.768 24.9436 116.591C25.017 116.414 24.9547 116.209 24.8027 116.064C24.9239 115.895 25.0723 115.746 25.2419 115.625C25.3866 115.777 25.5911 115.839 25.7682 115.766C25.9453 115.693 26.0457 115.504 26.0406 115.294C26.2462 115.26 26.4561 115.26 26.6618 115.294C26.6566 115.504 26.7572 115.693 26.9341 115.766C27.1112 115.839 27.3158 115.777 27.4603 115.625C27.6299 115.746 27.7784 115.895 27.8997 116.064C27.7477 116.209 27.6854 116.414 27.7587 116.591C27.832 116.768 28.0208 116.868 28.2304 116.863C28.2647 117.069 28.2647 117.278 28.2304 117.484C28.0206 117.479 27.832 117.58 27.7587 117.756C27.6854 117.934 27.7477 118.138 27.8997 118.283C27.7785 118.452 27.6301 118.601 27.4605 118.722C27.3158 118.57 27.1112 118.508 26.9341 118.581C26.757 118.654 26.6566 118.843 26.6618 119.053C26.4561 119.087 26.2462 119.087 26.0406 119.053C26.0457 118.843 25.9452 118.654 25.7682 118.581C25.5911 118.508 25.3866 118.57 25.2421 118.722C25.0724 118.601 24.924 118.452 24.8027 118.283C24.9547 118.138 25.017 117.934 24.9436 117.756C24.8703 117.579 24.6816 117.479 24.4719 117.484V117.484ZM26.3512 117.745C26.5027 117.745 26.648 117.685 26.7552 117.578C26.8623 117.47 26.9225 117.325 26.9225 117.174C26.9225 117.022 26.8623 116.877 26.7552 116.77C26.648 116.662 26.5027 116.602 26.3512 116.602C26.1997 116.602 26.0543 116.662 25.9472 116.77C25.84 116.877 25.7799 117.022 25.7799 117.174C25.7799 117.325 25.84 117.47 25.9472 117.578C26.0543 117.685 26.1997 117.745 26.3512 117.745ZM27.8476 118.694C27.8287 118.808 27.8287 118.925 27.8476 119.039V119.039C27.9641 119.036 28.069 119.092 28.1097 119.191C28.1504 119.289 28.1158 119.403 28.0314 119.483C28.0988 119.577 28.1813 119.66 28.2755 119.727C28.3558 119.643 28.4694 119.608 28.5678 119.649C28.6661 119.689 28.722 119.794 28.7191 119.911C28.8334 119.93 28.95 119.93 29.0642 119.911C29.0614 119.794 29.1171 119.689 29.2155 119.649C29.3139 119.608 29.4276 119.643 29.508 119.727C29.6022 119.66 29.6846 119.577 29.7519 119.483C29.6675 119.403 29.6329 119.289 29.6736 119.191C29.7144 119.092 29.8191 119.036 29.9357 119.039C29.9547 118.925 29.9547 118.808 29.9357 118.694C29.8192 118.697 29.7144 118.641 29.6736 118.543C29.6329 118.444 29.6675 118.331 29.7519 118.25C29.6846 118.156 29.6021 118.074 29.5079 118.006C29.4276 118.091 29.3139 118.125 29.2155 118.085C29.1172 118.044 29.0614 117.939 29.0642 117.823C28.95 117.804 28.8334 117.804 28.7191 117.823C28.722 117.939 28.6662 118.044 28.5678 118.085C28.4694 118.125 28.3558 118.091 28.2754 118.006C28.1812 118.074 28.0987 118.156 28.0314 118.251C28.1158 118.331 28.1504 118.444 28.1097 118.543C28.069 118.641 27.9642 118.697 27.8476 118.694ZM29.1161 119.091C29.0566 119.151 28.9759 119.184 28.8917 119.184C28.8075 119.184 28.7268 119.151 28.6672 119.091C28.6077 119.032 28.5743 118.951 28.5743 118.867C28.5743 118.782 28.6077 118.702 28.6672 118.642C28.7268 118.583 28.8075 118.549 28.8917 118.549C28.9759 118.549 29.0566 118.583 29.1161 118.642C29.1756 118.702 29.2091 118.782 29.2091 118.867C29.2091 118.951 29.1756 119.032 29.1161 119.091Z" fill="#ABAED1"/>
<path d="M28.3681 128.298C28.0625 128.078 27.6786 127.968 27.2164 127.968C26.865 127.968 26.5682 128.045 26.3272 128.2C25.9447 128.443 25.7415 128.856 25.7168 129.438H26.6033C26.6033 129.268 26.6529 129.105 26.7516 128.948C26.8505 128.791 27.0183 128.712 27.255 128.712C27.4957 128.712 27.6617 128.776 27.752 128.903C27.8429 129.031 27.8882 129.172 27.8882 129.327C27.8882 129.462 27.8206 129.586 27.7389 129.698C27.6902 129.768 27.6303 129.829 27.5617 129.879C27.5617 129.879 27.081 130.187 26.8701 130.435C26.7478 130.578 26.7368 130.794 26.7258 131.102C26.7253 131.124 26.7336 131.17 26.8103 131.17H27.4995C27.5681 131.17 27.5823 131.119 27.5831 131.096C27.588 130.984 27.6003 130.926 27.6209 130.861C27.6595 130.739 27.7652 130.632 27.8834 130.54L28.1273 130.372C28.3477 130.2 28.5233 130.059 28.601 129.949C28.7334 129.768 28.8267 129.544 28.8267 129.279C28.8265 128.846 28.6737 128.519 28.3681 128.298ZM27.2022 131.701C26.8969 131.692 26.6449 131.903 26.6352 132.234C26.6258 132.565 26.8652 132.784 27.1708 132.793C27.4896 132.803 27.7349 132.598 27.7448 132.267C27.7539 131.936 27.5212 131.71 27.2022 131.701Z" fill="#ABAED1"/>
<rect width="23.4092" height="71.0742" transform="translate(15.7051 319.542)" fill="#282A48"/>
<path d="M26.1224 328.143C26.0476 328.223 26.0069 328.329 26.0089 328.439C26.0108 328.548 26.0552 328.653 26.1328 328.731C26.2103 328.808 26.315 328.852 26.4246 328.854C26.5343 328.856 26.6404 328.816 26.7207 328.741L28.555 326.907C28.6343 326.827 28.6788 326.72 28.6788 326.607C28.6788 326.495 28.6343 326.388 28.555 326.308L26.7207 324.474C26.6404 324.399 26.5343 324.358 26.4246 324.36C26.315 324.362 26.2103 324.407 26.1328 324.484C26.0552 324.562 26.0108 324.666 26.0089 324.776C26.0069 324.886 26.0476 324.992 26.1224 325.072L27.6576 326.607L26.1224 328.143Z" fill="#ABAED1"/>
<path d="M25.2925 342.401C25.2925 342.401 24.8691 342.401 24.8691 341.977C24.8691 341.554 25.2925 339.861 27.409 339.861C29.5256 339.861 29.9489 341.554 29.9489 341.977C29.9489 342.401 29.5256 342.401 29.5256 342.401H25.2925ZM27.409 339.861C27.7458 339.861 28.0688 339.727 28.307 339.489C28.5452 339.251 28.679 338.928 28.679 338.591C28.679 338.254 28.5452 337.931 28.307 337.693C28.0688 337.455 27.7458 337.321 27.409 337.321C27.0722 337.321 26.7492 337.455 26.511 337.693C26.2729 337.931 26.1391 338.254 26.1391 338.591C26.1391 338.928 26.2729 339.251 26.511 339.489C26.7492 339.727 27.0722 339.861 27.409 339.861Z" fill="#ABAED1"/>
<path d="M29.2697 353.643V355.172C29.2697 355.227 29.2495 355.275 29.2092 355.315C29.1688 355.355 29.1211 355.375 29.0659 355.375H27.8433V354.153H27.0282V355.375H25.8056C25.7504 355.375 25.7026 355.355 25.6623 355.315C25.622 355.275 25.6018 355.227 25.6018 355.172V353.643C25.6018 353.641 25.6023 353.638 25.6034 353.634C25.6044 353.63 25.605 353.626 25.605 353.624L27.4357 352.115L29.2665 353.624C29.2686 353.629 29.2697 353.635 29.2697 353.643ZM29.9797 353.424L29.7823 353.659C29.7653 353.678 29.743 353.69 29.7154 353.694H29.7059C29.6783 353.694 29.656 353.687 29.639 353.672L27.4357 351.835L25.2325 353.672C25.207 353.689 25.1815 353.697 25.156 353.694C25.1285 353.69 25.1062 353.678 25.0892 353.659L24.8918 353.424C24.8748 353.403 24.8674 353.378 24.8695 353.349C24.8716 353.32 24.8833 353.297 24.9045 353.28L27.1938 351.373C27.2617 351.318 27.3423 351.291 27.4357 351.291C27.5291 351.291 27.6098 351.318 27.6777 351.373L28.4546 352.023V351.402C28.4546 351.372 28.4641 351.348 28.4832 351.329C28.5023 351.31 28.5268 351.3 28.5565 351.3H29.1678C29.1975 351.3 29.2219 351.31 29.241 351.329C29.2601 351.348 29.2697 351.372 29.2697 351.402V352.701L29.9669 353.28C29.9882 353.297 29.9998 353.32 30.002 353.349C30.0041 353.378 29.9967 353.403 29.9797 353.424Z" fill="#ABAED1"/>
<path fill-rule="evenodd" clip-rule="evenodd" d="M29.302 365.625C29.1918 365.514 29.0132 365.514 28.9029 365.625L28.0563 366.471C27.9461 366.581 27.9461 366.76 28.0563 366.87C28.1665 366.981 28.3452 366.981 28.4554 366.87L28.8201 366.506V368.789H26.2803C26.1244 368.789 25.998 368.916 25.998 369.071C25.998 369.227 26.1244 369.354 26.2803 369.354H29.1023C29.2582 369.354 29.3845 369.227 29.3845 369.071V366.505L29.7496 366.87C29.8598 366.981 30.0385 366.981 30.1487 366.87C30.2589 366.76 30.2589 366.581 30.1487 366.471L29.302 365.625Z" fill="#ABAED1"/>
<path fill-rule="evenodd" clip-rule="evenodd" d="M25.9979 364.837C25.8421 364.837 25.7157 364.963 25.7157 365.119V367.542L25.3509 367.177C25.2407 367.067 25.062 367.067 24.9518 367.177C24.8416 367.288 24.8416 367.466 24.9518 367.576L25.7984 368.423C25.9086 368.533 26.0873 368.533 26.1975 368.423L27.0441 367.576C27.1544 367.466 27.1544 367.288 27.0441 367.177C26.9339 367.067 26.7553 367.067 26.645 367.177L26.2801 367.542V365.401H28.82C28.9759 365.401 29.1022 365.275 29.1022 365.119C29.1022 364.963 28.9759 364.837 28.82 364.837H25.9979Z" fill="#ABAED1"/>
<path d="M28.171 383.039C28.2383 383.039 28.3029 383.012 28.3506 382.965C28.3982 382.917 28.425 382.853 28.425 382.785C28.425 382.718 28.3982 382.653 28.3506 382.606C28.3029 382.558 28.2383 382.531 28.171 382.531H26.0544C25.8748 382.531 25.7025 382.46 25.5755 382.333C25.4485 382.206 25.3771 382.034 25.3771 381.854V379.145C25.3771 378.965 25.4485 378.793 25.5755 378.666C25.7025 378.539 25.8748 378.467 26.0544 378.467H28.171C28.2383 378.467 28.3029 378.441 28.3506 378.393C28.3982 378.345 28.425 378.281 28.425 378.213C28.425 378.146 28.3982 378.081 28.3506 378.034C28.3029 377.986 28.2383 377.959 28.171 377.959H26.0544C25.7401 377.959 25.4386 378.084 25.2163 378.307C24.994 378.529 24.8691 378.83 24.8691 379.145V381.854C24.8691 382.168 24.994 382.47 25.2163 382.692C25.4386 382.914 25.7401 383.039 26.0544 383.039H28.171ZM28.5066 379.212C28.5311 379.189 28.5598 379.172 28.5911 379.16C28.6224 379.149 28.6557 379.144 28.689 379.145C28.7223 379.146 28.7551 379.154 28.7854 379.168C28.8157 379.182 28.8429 379.202 28.8655 379.226L29.8815 380.327C29.9249 380.374 29.9489 380.435 29.9489 380.499C29.9489 380.563 29.9249 380.625 29.8815 380.672L28.8655 381.772C28.8198 381.822 28.7563 381.851 28.6889 381.854C28.6216 381.856 28.556 381.832 28.5066 381.786C28.4571 381.74 28.4279 381.677 28.4253 381.61C28.4227 381.542 28.4469 381.477 28.4927 381.427L29.1151 380.753H26.4777C26.4104 380.753 26.3458 380.726 26.2981 380.679C26.2505 380.631 26.2237 380.566 26.2237 380.499C26.2237 380.432 26.2505 380.367 26.2981 380.319C26.3458 380.272 26.4104 380.245 26.4777 380.245H29.1148L28.4924 379.571C28.4697 379.546 28.4521 379.518 28.4406 379.486C28.429 379.455 28.4238 379.422 28.4251 379.388C28.4264 379.355 28.4343 379.322 28.4483 379.292C28.4623 379.262 28.4821 379.234 28.5066 379.212V379.212Z" fill="#ABAED1"/>
<rect width="23.4092" height="23.4092" transform="translate(15.7051 15.7051)" fill="#282A48"/>
<g clip-path="url(#clip0_2360_49191)">
<path d="M19.5358 27.9662C19.677 28.0701 19.8149 28.1698 19.9509 28.2717C19.9931 28.3024 20.0248 28.3455 20.0418 28.395C20.0589 28.4445 20.0603 28.4981 20.0459 28.5484C20.0315 28.5987 20.002 28.6434 19.9615 28.6763C19.921 28.7092 19.8713 28.7287 19.8193 28.7323C19.7595 28.7373 19.6999 28.7201 19.6518 28.6841C19.3334 28.4513 19.0155 28.2177 18.6979 27.9834C18.6522 27.9521 18.618 27.9066 18.6004 27.8539C18.5829 27.8012 18.5831 27.7441 18.6009 27.6915C18.6188 27.6389 18.6533 27.5936 18.6992 27.5626C18.7451 27.5316 18.7999 27.5166 18.8551 27.5199C18.9666 27.5199 19.0781 27.5199 19.1862 27.5177C19.3865 27.5106 19.5206 27.4056 19.5782 27.2122C19.6218 27.0774 19.6114 26.9308 19.5492 26.8036C19.4793 26.659 19.3601 26.5948 19.2036 26.5933C18.9265 26.5911 18.6496 26.5933 18.3728 26.5933C18.3653 26.5942 18.3579 26.5956 18.3505 26.5974V26.6609C18.3505 27.2672 18.3505 27.8734 18.3505 28.4794C18.3509 28.5376 18.3313 28.5942 18.2951 28.6396C18.2588 28.685 18.2082 28.7166 18.1516 28.729C18.095 28.7413 18.0359 28.7338 17.9842 28.7076C17.9325 28.6814 17.8913 28.6382 17.8675 28.5851C17.853 28.5506 17.8453 28.5135 17.8448 28.476C17.8448 27.7642 17.8448 27.0522 17.8448 26.3401C17.8438 26.3071 17.8494 26.2742 17.8612 26.2434C17.8731 26.2126 17.8909 26.1845 17.9136 26.1607C17.9364 26.1369 17.9637 26.1179 17.9939 26.1048C18.024 26.0918 18.0565 26.0849 18.0893 26.0846C18.4732 26.0824 18.857 26.0779 19.2412 26.0846C19.6599 26.0932 19.9954 26.3812 20.0843 26.7987C20.1496 27.1068 20.1017 27.3963 19.9189 27.6577C19.8334 27.7797 19.7176 27.8769 19.583 27.9397L19.5459 27.9573C19.5418 27.9588 19.5399 27.9621 19.5358 27.9662Z" fill="#ABAED1"/>
<path d="M31.808 28.0431H30.5562C30.5562 28.1253 30.5562 28.2052 30.5562 28.2848C30.5562 28.355 30.5581 28.4248 30.5562 28.4947C30.5518 28.5595 30.5228 28.6202 30.4751 28.6641C30.4275 28.7081 30.3649 28.732 30.3002 28.7309C30.2356 28.7297 30.1738 28.7037 30.1277 28.6582C30.0816 28.6126 30.0546 28.551 30.0524 28.4861C30.0505 28.061 30.0394 27.6356 30.0554 27.2114C30.0702 26.8184 30.2196 26.4808 30.5577 26.2541C30.7613 26.1178 30.9917 26.0756 31.2328 26.0834C31.7839 26.1021 32.177 26.442 32.2873 26.9996C32.3062 27.0949 32.316 27.1918 32.3167 27.289C32.3197 27.6831 32.3167 28.0775 32.3167 28.4719C32.3182 28.5304 32.2996 28.5877 32.2641 28.6342C32.2286 28.6806 32.1783 28.7134 32.1216 28.727C32.0649 28.7408 32.0052 28.7343 31.9527 28.7087C31.9002 28.6831 31.8583 28.6399 31.834 28.5865C31.8186 28.549 31.8104 28.5088 31.8099 28.4681C31.808 28.3281 31.808 28.1899 31.808 28.0431ZM31.808 27.5281C31.8043 27.3529 31.8229 27.1807 31.7664 27.013C31.698 26.8117 31.5806 26.6623 31.3644 26.6123C31.2464 26.5854 31.1238 26.5854 31.0058 26.6123C30.8788 26.6376 30.7666 26.7119 30.6933 26.8192C30.5447 27.0358 30.5499 27.2801 30.5614 27.5288L31.808 27.5281Z" fill="#ABAED1"/>
<path d="M33.3896 28.7341C33.2127 28.7341 33.0362 28.7341 32.8594 28.7341C32.7975 28.7355 32.7374 28.7141 32.6902 28.6739C32.6431 28.6337 32.6122 28.5775 32.6035 28.516C32.5948 28.4544 32.6089 28.3918 32.643 28.34C32.6771 28.2882 32.729 28.2508 32.7888 28.2348C32.8169 28.2282 32.8457 28.2253 32.8746 28.2262C33.1904 28.2262 33.5062 28.2262 33.8221 28.2262C33.9175 28.2281 34.0121 28.2074 34.0981 28.1657C34.1966 28.116 34.2401 28.0312 34.23 27.9117C34.2189 27.7761 34.1773 27.7104 34.058 27.6846C33.9655 27.6662 33.8714 27.6579 33.7771 27.66C33.5467 27.66 33.3156 27.682 33.0882 27.6226C32.9151 27.5832 32.7579 27.492 32.6372 27.3612C32.3741 27.0673 32.3752 26.3793 32.9757 26.1582C33.1065 26.1094 33.2448 26.0841 33.3844 26.0835H34.2865C34.3518 26.0833 34.4147 26.1086 34.4618 26.154C34.509 26.1994 34.5367 26.2614 34.5393 26.327C34.5419 26.3926 34.5191 26.4566 34.4757 26.5057C34.4323 26.5547 34.3717 26.5849 34.3066 26.5899C34.2104 26.5955 34.1134 26.5918 34.0164 26.5922C33.7871 26.5922 33.5579 26.5922 33.329 26.5993C33.2517 26.6064 33.1763 26.627 33.1061 26.6602C33.008 26.7016 32.979 26.7894 32.9801 26.8913C32.9786 26.9343 32.9905 26.9767 33.0142 27.0125C33.0378 27.0483 33.072 27.0758 33.112 27.0912C33.2376 27.1487 33.3703 27.1547 33.5055 27.155C33.695 27.155 33.8845 27.1296 34.0744 27.1595C34.4169 27.2133 34.6637 27.4351 34.7235 27.7504C34.8138 28.2288 34.5552 28.6135 34.077 28.7065C33.9885 28.7221 33.8989 28.7309 33.8091 28.7326C33.6682 28.7371 33.5289 28.7341 33.3896 28.7341Z" fill="#ABAED1"/>
<path d="M22.7312 27.5007C22.7171 27.8936 22.5328 28.2877 22.1222 28.551C21.6069 28.8819 20.9544 28.7586 20.5617 28.2686C20.1411 27.7457 20.1756 26.9431 20.6397 26.4572C21.2138 25.8566 22.1661 25.9982 22.567 26.744C22.6788 26.9525 22.7323 27.1754 22.7312 27.5007ZM20.7727 27.392C20.7697 27.5607 20.8142 27.7267 20.9013 27.8709C21.138 28.257 21.615 28.3392 21.9435 28.0512C22.2935 27.7442 22.3192 27.1549 21.9974 26.8187C21.7128 26.52 21.281 26.5177 21.0031 26.8143C20.8556 26.9702 20.7732 27.1769 20.7727 27.392Z" fill="#ABAED1"/>
<path d="M28.1631 27.1525H28.3935C28.5514 27.1525 28.7097 27.1525 28.8676 27.1525C28.9017 27.1512 28.9358 27.1568 28.9678 27.169C28.9997 27.1813 29.0289 27.1999 29.0535 27.2237C29.0782 27.2475 29.0978 27.2761 29.1112 27.3078C29.1245 27.3394 29.1314 27.3734 29.1314 27.4078C29.1314 27.4421 29.1245 27.4762 29.1112 27.5078C29.0978 27.5394 29.0782 27.568 29.0535 27.5918C29.0289 27.6157 28.9997 27.6343 28.9678 27.6465C28.9358 27.6587 28.9017 27.6644 28.8676 27.663H28.1631C28.1894 27.7953 28.257 27.9156 28.3559 28.0067C28.5159 28.1479 28.7219 28.2251 28.9348 28.2236C29.1674 28.2289 29.4 28.2236 29.633 28.2236C29.6662 28.2233 29.6991 28.2295 29.7299 28.2419C29.7607 28.2543 29.7888 28.2727 29.8125 28.2961C29.8362 28.3194 29.8551 28.3472 29.8681 28.3778C29.8812 28.4085 29.8881 28.4415 29.8884 28.4748C29.8888 28.5082 29.8826 28.5413 29.8703 28.5722C29.8579 28.6032 29.8396 28.6314 29.8164 28.6552C29.7932 28.6791 29.7656 28.6981 29.735 28.7112C29.7045 28.7243 29.6717 28.7312 29.6386 28.7316C29.374 28.7316 29.1076 28.7462 28.8442 28.7252C28.3667 28.6879 27.981 28.4825 27.7581 28.0347C27.6314 27.7799 27.6095 27.5054 27.6358 27.2257C27.6556 26.9601 27.7616 26.7084 27.9376 26.5093C28.1485 26.2747 28.4392 26.1281 28.7524 26.0985C28.9486 26.0757 29.1488 26.0862 29.3469 26.0832C29.4439 26.0832 29.5408 26.0832 29.6375 26.0832C29.6715 26.0819 29.7054 26.0875 29.7372 26.0997C29.769 26.1119 29.7981 26.1304 29.8226 26.1541C29.8471 26.1778 29.8667 26.2063 29.88 26.2378C29.8933 26.2693 29.9002 26.3031 29.9002 26.3374C29.9002 26.3716 29.8933 26.4054 29.88 26.4369C29.8667 26.4684 29.8471 26.4969 29.8226 26.5206C29.7981 26.5443 29.769 26.5629 29.7372 26.575C29.7054 26.5872 29.6715 26.5928 29.6375 26.5915C29.3997 26.5915 29.1619 26.5863 28.9241 26.5915C28.6777 26.5986 28.4577 26.6778 28.2924 26.8731C28.2269 26.954 28.1824 27.05 28.1631 27.1525Z" fill="#ABAED1"/>
<path d="M25.2328 26.9774C25.2328 27.1791 25.2399 27.3807 25.2328 27.5817C25.2172 27.9421 25.0987 28.2599 24.8155 28.4975C24.5926 28.6842 24.3277 28.7425 24.0445 28.7324C23.8101 28.731 23.5826 28.6522 23.3969 28.5083C23.1676 28.3253 23.048 28.0777 22.993 27.7949C22.9778 27.7129 22.9703 27.6296 22.9707 27.5462C22.9685 27.1432 22.9707 26.7402 22.9707 26.3372C22.9709 26.2763 22.993 26.2175 23.0328 26.1717C23.0726 26.1258 23.1275 26.0958 23.1875 26.0874C23.2475 26.0789 23.3085 26.0924 23.3594 26.1255C23.4103 26.1585 23.4476 26.2089 23.4645 26.2674C23.4736 26.304 23.4776 26.3417 23.4764 26.3794C23.4764 26.7738 23.4742 27.1682 23.4783 27.5626C23.4783 27.7595 23.5388 27.941 23.683 28.0818C23.8112 28.2069 23.9754 28.2312 24.146 28.2252C24.4919 28.2091 24.655 27.9985 24.7145 27.6881C24.7234 27.6377 24.7275 27.5866 24.7267 27.5354C24.7267 27.141 24.7267 26.7466 24.7267 26.3522C24.7267 26.1437 24.9341 26.016 25.1083 26.1198C25.1475 26.1411 25.18 26.1729 25.2023 26.2117C25.2245 26.2505 25.2356 26.2947 25.2343 26.3395C25.2332 26.5505 25.2328 26.7641 25.2328 26.9774Z" fill="#ABAED1"/>
<path d="M26.2673 26.5925H26.1968C26.011 26.5925 25.8252 26.5925 25.6416 26.5925C25.6076 26.5938 25.5737 26.5882 25.5419 26.576C25.5101 26.5638 25.481 26.5453 25.4565 26.5216C25.4319 26.4979 25.4124 26.4694 25.3991 26.4379C25.3858 26.4064 25.3789 26.3726 25.3789 26.3383C25.3789 26.3041 25.3858 26.2702 25.3991 26.2387C25.4124 26.2073 25.4319 26.1788 25.4565 26.1551C25.481 26.1313 25.5101 26.1128 25.5419 26.1006C25.5737 26.0885 25.6076 26.0829 25.6416 26.0842C26.2262 26.0842 26.8106 26.0842 27.3947 26.0842C27.4287 26.083 27.4626 26.0888 27.4943 26.1011C27.5261 26.1134 27.5551 26.1321 27.5795 26.1559C27.6039 26.1797 27.6233 26.2083 27.6365 26.2398C27.6497 26.2714 27.6564 26.3053 27.6562 26.3395C27.6561 26.3737 27.6491 26.4075 27.6356 26.439C27.6221 26.4704 27.6025 26.4988 27.5779 26.5224C27.5532 26.546 27.5241 26.5644 27.4923 26.5764C27.4604 26.5885 27.4265 26.5939 27.3924 26.5925C27.2067 26.5925 27.0209 26.5925 26.837 26.5925H26.7716V26.659C26.7716 27.265 26.7716 27.8711 26.7716 28.4771C26.772 28.5384 26.7504 28.5977 26.7106 28.6441C26.6709 28.6906 26.6158 28.721 26.5555 28.7297C26.4951 28.7384 26.4337 28.7248 26.3826 28.6915C26.3315 28.6582 26.2941 28.6073 26.2774 28.5484C26.2686 28.5118 26.2647 28.4741 26.2659 28.4364C26.2659 27.8455 26.2659 27.2548 26.2659 26.6642L26.2673 26.5925Z" fill="#ABAED1"/>
<path d="M35.8407 27.0071L36.1617 26.6168C36.281 26.4719 36.3995 26.327 36.5188 26.1824C36.5393 26.1546 36.5652 26.1313 36.5949 26.1139C36.6247 26.0964 36.6577 26.0853 36.6918 26.081C36.726 26.0768 36.7607 26.0796 36.7938 26.0892C36.8268 26.0989 36.8576 26.1152 36.8842 26.1371C36.9108 26.1591 36.9327 26.1863 36.9486 26.217C36.9644 26.2477 36.9739 26.2814 36.9764 26.3159C36.9789 26.3504 36.9745 26.3851 36.9632 26.4178C36.952 26.4505 36.9343 26.4806 36.9111 26.5063C36.6492 26.8267 36.3854 27.1457 36.1242 27.4665C36.106 27.4901 36.0959 27.5189 36.0952 27.5487C36.093 27.8579 36.0952 28.1668 36.0952 28.476C36.0966 28.5329 36.0788 28.5885 36.0447 28.6338C36.0106 28.6792 35.9623 28.7117 35.9076 28.7259C35.853 28.7413 35.7948 28.7373 35.7428 28.7146C35.6907 28.692 35.648 28.6521 35.6218 28.6015C35.6013 28.557 35.5905 28.5086 35.5902 28.4596C35.5876 28.1608 35.5902 27.862 35.5902 27.5632C35.5921 27.5222 35.578 27.482 35.5509 27.4512C35.2898 27.1385 35.0304 26.8246 34.7728 26.5096C34.7311 26.4627 34.708 26.4019 34.708 26.3389C34.708 26.276 34.7311 26.2152 34.7728 26.1683C34.8124 26.1229 34.8669 26.0933 34.9264 26.085C34.9859 26.0767 35.0464 26.0902 35.0968 26.1231C35.1298 26.147 35.1592 26.1755 35.1841 26.2078C35.4011 26.4723 35.6181 26.736 35.8407 27.0071Z" fill="#ABAED1"/>
</g>
<defs>
<clipPath id="clip0_2360_49191">
<rect width="19.1303" height="2.65699" fill="white" transform="translate(17.8447 26.0811)"/>
</clipPath>
</defs>
</svg>
