<svg width="40" height="90" viewBox="0 0 40 90" fill="none" xmlns="http://www.w3.org/2000/svg">
<path d="M22.5 2.8125H17.5C14.9316 2.81539 12.4692 3.83697 10.6531 5.6531C8.83697 7.46923 7.81539 9.9316 7.8125 12.5V27.5C7.81539 30.0684 8.83697 32.5308 10.6531 34.3469C12.4692 36.163 14.9316 37.1846 17.5 37.1875H22.5C25.0684 37.1846 27.5308 36.163 29.3469 34.3469C31.163 32.5308 32.1846 30.0684 32.1875 27.5V12.5C32.1846 9.9316 31.163 7.46923 29.3469 5.6531C27.5308 3.83697 25.0684 2.81539 22.5 2.8125ZM30.3125 27.5C30.31 29.5712 29.4861 31.5569 28.0215 33.0215C26.5569 34.4861 24.5712 35.31 22.5 35.3125H17.5C15.4288 35.31 13.4431 34.4861 11.9785 33.0215C10.5139 31.5569 9.68998 29.5712 9.6875 27.5V12.5C9.68998 10.4288 10.5139 8.44306 11.9785 6.97847C13.4431 5.51388 15.4288 4.68998 17.5 4.6875H22.5C24.5712 4.68998 26.5569 5.51388 28.0215 6.97847C29.4861 8.44306 30.31 10.4288 30.3125 12.5V27.5ZM20.9375 10V17.5C20.9375 17.7486 20.8387 17.9871 20.6629 18.1629C20.4871 18.3387 20.2486 18.4375 20 18.4375C19.7514 18.4375 19.5129 18.3387 19.3371 18.1629C19.1613 17.9871 19.0625 17.7486 19.0625 17.5V10C19.0625 9.75136 19.1613 9.5129 19.3371 9.33709C19.5129 9.16127 19.7514 9.0625 20 9.0625C20.2486 9.0625 20.4871 9.16127 20.6629 9.33709C20.8387 9.5129 20.9375 9.75136 20.9375 10Z" fill="white"/>
<path d="M8.5498 57.2793C8.5498 57.8717 8.40397 58.3822 8.1123 58.8105C7.8252 59.2389 7.41048 59.5671 6.86816 59.7949C6.3304 60.0228 5.68783 60.1367 4.94043 60.1367C4.57585 60.1367 4.22721 60.1162 3.89453 60.0752C3.56185 60.0342 3.2474 59.9749 2.95117 59.8975C2.65951 59.8154 2.3929 59.7174 2.15137 59.6035V58.0586C2.55697 58.2363 3.01042 58.3981 3.51172 58.5439C4.01302 58.6852 4.52344 58.7559 5.04297 58.7559C5.4668 58.7559 5.81771 58.7012 6.0957 58.5918C6.37826 58.4779 6.58789 58.3184 6.72461 58.1133C6.86133 57.9036 6.92969 57.6598 6.92969 57.3818C6.92969 57.0856 6.84993 56.835 6.69043 56.6299C6.53092 56.4248 6.28939 56.238 5.96582 56.0693C5.64681 55.8962 5.24577 55.7116 4.7627 55.5156C4.43457 55.3835 4.12012 55.2331 3.81934 55.0645C3.52311 54.8958 3.25879 54.6976 3.02637 54.4697C2.79395 54.2419 2.60938 53.973 2.47266 53.6631C2.34049 53.3486 2.27441 52.9795 2.27441 52.5557C2.27441 51.9906 2.40885 51.5075 2.67773 51.1064C2.95117 50.7054 3.33398 50.3978 3.82617 50.1836C4.32292 49.9694 4.90169 49.8623 5.5625 49.8623C6.08659 49.8623 6.57878 49.917 7.03906 50.0264C7.50391 50.1357 7.95964 50.2907 8.40625 50.4912L7.88672 51.8105C7.47656 51.6419 7.0778 51.5075 6.69043 51.4072C6.30762 51.307 5.91569 51.2568 5.51465 51.2568C5.16829 51.2568 4.87435 51.3092 4.63281 51.4141C4.39128 51.5189 4.20671 51.667 4.0791 51.8584C3.95605 52.0452 3.89453 52.2686 3.89453 52.5283C3.89453 52.82 3.96517 53.0661 4.10645 53.2666C4.25228 53.4626 4.47559 53.6426 4.77637 53.8066C5.08171 53.9707 5.47363 54.153 5.95215 54.3535C6.50358 54.5814 6.9707 54.8206 7.35352 55.0713C7.74089 55.3219 8.03711 55.6227 8.24219 55.9736C8.44727 56.32 8.5498 56.7552 8.5498 57.2793ZM13.3623 60.1367C12.6468 60.1367 12.027 59.9977 11.5029 59.7197C10.9788 59.4417 10.5755 59.0156 10.293 58.4414C10.0104 57.8672 9.86914 57.138 9.86914 56.2539C9.86914 55.3333 10.0241 54.5814 10.334 53.998C10.6439 53.4147 11.0723 52.984 11.6191 52.7061C12.1706 52.4281 12.8018 52.2891 13.5127 52.2891C13.9639 52.2891 14.3717 52.3346 14.7363 52.4258C15.1055 52.5124 15.4176 52.6195 15.6729 52.7471L15.1943 54.0322C14.9163 53.9183 14.6315 53.8226 14.3398 53.7451C14.0482 53.6676 13.7679 53.6289 13.499 53.6289C13.057 53.6289 12.6878 53.7269 12.3916 53.9229C12.0999 54.1188 11.8812 54.4105 11.7354 54.7979C11.5941 55.1852 11.5234 55.666 11.5234 56.2402C11.5234 56.7962 11.5964 57.2656 11.7422 57.6484C11.888 58.0267 12.1045 58.3138 12.3916 58.5098C12.6787 58.7012 13.0319 58.7969 13.4512 58.7969C13.8659 58.7969 14.2373 58.7467 14.5654 58.6465C14.8936 58.5462 15.2035 58.4163 15.4951 58.2568V59.6514C15.208 59.8154 14.9004 59.9362 14.5723 60.0137C14.2441 60.0957 13.8408 60.1367 13.3623 60.1367ZM21.1074 52.2891C21.235 52.2891 21.374 52.2959 21.5244 52.3096C21.6748 52.3232 21.8047 52.3415 21.9141 52.3643L21.7637 53.8682C21.668 53.8408 21.5495 53.8203 21.4082 53.8066C21.2715 53.793 21.1484 53.7861 21.0391 53.7861C20.752 53.7861 20.4785 53.834 20.2188 53.9297C19.959 54.0208 19.7288 54.1621 19.5283 54.3535C19.3278 54.5404 19.1706 54.7751 19.0566 55.0576C18.9427 55.3402 18.8857 55.6683 18.8857 56.042V60H17.2725V52.4326H18.5303L18.749 53.7656H18.8242C18.9746 53.4967 19.1615 53.2507 19.3848 53.0273C19.6081 52.804 19.8633 52.6263 20.1504 52.4941C20.4421 52.3574 20.7611 52.2891 21.1074 52.2891ZM30.0146 56.1992C30.0146 56.8281 29.9326 57.3864 29.7686 57.874C29.6045 58.3617 29.3652 58.7741 29.0508 59.1113C28.7363 59.444 28.3581 59.6992 27.916 59.877C27.474 60.0501 26.9749 60.1367 26.4189 60.1367C25.8994 60.1367 25.4232 60.0501 24.9902 59.877C24.5573 59.6992 24.1813 59.444 23.8623 59.1113C23.5479 58.7741 23.304 58.3617 23.1309 57.874C22.9577 57.3864 22.8711 56.8281 22.8711 56.1992C22.8711 55.3652 23.0146 54.6589 23.3018 54.0801C23.5934 53.4967 24.0081 53.0524 24.5459 52.7471C25.0837 52.4417 25.724 52.2891 26.4668 52.2891C27.1641 52.2891 27.7793 52.4417 28.3125 52.7471C28.8457 53.0524 29.2627 53.4967 29.5635 54.0801C29.8643 54.6634 30.0146 55.3698 30.0146 56.1992ZM24.5254 56.1992C24.5254 56.7507 24.5915 57.2223 24.7236 57.6143C24.8604 58.0062 25.07 58.307 25.3525 58.5166C25.6351 58.7217 25.9997 58.8242 26.4463 58.8242C26.8929 58.8242 27.2575 58.7217 27.54 58.5166C27.8226 58.307 28.0299 58.0062 28.1621 57.6143C28.2943 57.2223 28.3604 56.7507 28.3604 56.1992C28.3604 55.6478 28.2943 55.1807 28.1621 54.7979C28.0299 54.4105 27.8226 54.1165 27.54 53.916C27.2575 53.7109 26.8906 53.6084 26.4395 53.6084C25.7741 53.6084 25.2887 53.8317 24.9834 54.2783C24.6781 54.7249 24.5254 55.3652 24.5254 56.1992ZM33.4736 60H31.8604V49.3633H33.4736V60ZM37.3838 60H35.7705V49.3633H37.3838V60Z" fill="white"/>
<path d="M23.825 74.8251L20 78.6417L16.175 74.8251L15 76.0001L20 81.0001L25 76.0001L23.825 74.8251Z" fill="white"/>
</svg>
