<svg width="24" height="24" viewBox="0 0 24 24" fill="none" xmlns="http://www.w3.org/2000/svg">
<g clip-path="url(#clip0_2838_49053)">
<path d="M6.94303 19.3543L6.00017 23.1429M17.0573 19.3543L18.0002 23.1429M6.00017 5.14289V3.42861M18.0002 5.14289V3.42861M12.0002 5.14289V0.857178M12.0002 20.5715C14.8057 20.5672 17.5067 19.5063 19.5652 17.6002C21.6238 15.6942 22.889 13.0826 23.1087 10.2857C23.1089 10.0642 23.0233 9.85126 22.8699 9.69146C22.7165 9.53167 22.5072 9.43747 22.2859 9.42861H1.71446C1.49313 9.43747 1.28382 9.53167 1.13041 9.69146C0.977009 9.85126 0.891425 10.0642 0.891602 10.2857C1.11139 13.0826 2.37653 15.6942 4.43511 17.6002C6.49369 19.5063 9.19466 20.5672 12.0002 20.5715Z" stroke="white" stroke-linecap="round" stroke-linejoin="round"/>
</g>
<defs>
<clipPath id="clip0_2838_49053">
<rect width="24" height="24" fill="white"/>
</clipPath>
</defs>
</svg>
