<svg width="24" height="24" viewBox="0 0 24 24" fill="none" xmlns="http://www.w3.org/2000/svg">
<rect x="2.5" y="9.5" width="3" height="3" rx="0.5" stroke="white"/>
<rect x="17.5" y="2.5" width="3" height="3" rx="0.5" stroke="white"/>
<rect x="17.5" y="7.5" width="3" height="3" rx="0.5" stroke="white"/>
<rect x="17.5" y="12.5" width="3" height="3" rx="0.5" stroke="white"/>
<rect x="17.5" y="17.5" width="3" height="3" rx="0.5" stroke="white"/>
<path d="M14.9753 4L12.6448 4C12.2443 4 11.8825 4.23887 11.7252 4.6071L9.25317 10.3929C9.09584 10.7611 8.73402 11 8.33359 11L6.99993 11" stroke="white"/>
<path d="M14.9712 4.00003L14.168 4.45905L14.168 3.54102L14.9712 4.00003Z" fill="white" stroke="white"/>
<path d="M14.9753 9.0001L12.2891 9.0001C12.0906 9.0001 11.8965 9.05921 11.7317 9.1699L9.24665 10.8385C9.08181 10.9492 8.88775 11.0083 8.6892 11.0083L6.99993 11.0083" stroke="white"/>
<path d="M14.9712 9.00003L14.168 9.45905L14.168 8.54102L14.9712 9.00003Z" fill="white" stroke="white"/>
<path d="M14.9753 14.0002L12.3981 14.0002C12.1333 14.0002 11.8793 13.8952 11.6918 13.7082L9.28653 11.3086C9.09906 11.1216 8.84507 11.0166 8.58027 11.0166L6.99993 11.0166" stroke="white"/>
<path d="M14.9712 14L14.168 13.541L14.168 14.459L14.9712 14Z" fill="white" stroke="white"/>
<path d="M14.9753 18.9998L12.6776 18.9998C12.2607 18.9998 11.8876 18.7413 11.7412 18.3509L9.23711 11.6733C9.09075 11.283 8.71763 11.0244 8.30078 11.0244L6.99993 11.0244" stroke="white"/>
<path d="M14.9712 19L14.168 18.541L14.168 19.459L14.9712 19Z" fill="white" stroke="white"/>
</svg>
