<svg width="36" height="36" viewBox="0 0 36 36" fill="none" xmlns="http://www.w3.org/2000/svg">
<path d="M21.9375 14.0625H14.0625V21.9375H21.9375V14.0625Z" stroke="#15BE62" stroke-width="2" stroke-linecap="round" stroke-linejoin="round"/>
<path d="M28.125 6.75H7.875C7.25368 6.75 6.75 7.25368 6.75 7.875V28.125C6.75 28.7463 7.25368 29.25 7.875 29.25H28.125C28.7463 29.25 29.25 28.7463 29.25 28.125V7.875C29.25 7.25368 28.7463 6.75 28.125 6.75Z" stroke="#15BE62" stroke-width="2" stroke-linecap="round" stroke-linejoin="round"/>
<path d="M29.25 14.625H32.625" stroke="#15BE62" stroke-width="2" stroke-linecap="round" stroke-linejoin="round"/>
<path d="M29.25 21.375H32.625" stroke="#15BE62" stroke-width="2" stroke-linecap="round" stroke-linejoin="round"/>
<path d="M3.375 14.625H6.75" stroke="#15BE62" stroke-width="2" stroke-linecap="round" stroke-linejoin="round"/>
<path d="M3.375 21.375H6.75" stroke="#15BE62" stroke-width="2" stroke-linecap="round" stroke-linejoin="round"/>
<path d="M21.375 29.25V32.625" stroke="#15BE62" stroke-width="2" stroke-linecap="round" stroke-linejoin="round"/>
<path d="M14.625 29.25V32.625" stroke="#15BE62" stroke-width="2" stroke-linecap="round" stroke-linejoin="round"/>
<path d="M21.375 3.375V6.75" stroke="#15BE62" stroke-width="2" stroke-linecap="round" stroke-linejoin="round"/>
<path d="M14.625 3.375V6.75" stroke="#15BE62" stroke-width="2" stroke-linecap="round" stroke-linejoin="round"/>
</svg>
