<svg width="16" height="16" viewBox="0 0 16 16" fill="none" xmlns="http://www.w3.org/2000/svg">
<g clip-path="url(#clip0_1937_3373)">
<rect width="16" height="16" fill="white" fill-opacity="0.01"/>
<path d="M3.00163 8.00002C3.00163 7.4517 3.45164 7.00169 3.99996 7.00169C4.54828 7.00169 4.99829 7.4517 4.99829 8.00002C4.99829 8.54834 4.54828 8.99835 3.99996 8.99835C3.45164 8.99835 3.00163 8.54834 3.00163 8.00002ZM11.0016 8.00002C11.0016 7.4517 11.4516 7.00169 12 7.00169C12.5483 7.00169 12.9983 7.4517 12.9983 8.00002C12.9983 8.54834 12.5483 8.99835 12 8.99835C11.4516 8.99835 11.0016 8.54834 11.0016 8.00002ZM7.00163 8.00002C7.00163 7.4517 7.45164 7.00169 7.99996 7.00169C8.54828 7.00169 8.99829 7.4517 8.99829 8.00002C8.99829 8.54834 8.54828 8.99835 7.99996 8.99835C7.45164 8.99835 7.00163 8.54834 7.00163 8.00002Z" fill="black" fill-opacity="0.54" stroke="white" stroke-width="0.67"/>
</g>
<defs>
<clipPath id="clip0_1937_3373">
<rect width="16" height="16" fill="white"/>
</clipPath>
</defs>
</svg>
