<svg width="16" height="16" viewBox="0 0 16 16" fill="none" xmlns="http://www.w3.org/2000/svg">
<g clip-path="url(#clip0_1937_3363)">
<rect width="16" height="16" fill="white" fill-opacity="0.01"/>
<path fill-rule="evenodd" clip-rule="evenodd" d="M8 0.834656C7.67858 0.834656 7.36281 0.91916 7.08436 1.07969L7.08333 1.08028L2.4186 3.74583L2.41859 3.74583L2.41667 3.74694C2.1863 3.87994 1.98823 4.06113 1.83558 4.27737C1.8017 4.30958 1.7718 4.34712 1.74721 4.38963C1.72572 4.42678 1.70954 4.46555 1.69844 4.50505C1.56849 4.76115 1.5003 5.04466 1.5 5.33278L1.5 5.33329V10.6666L1.5 10.6671C1.50033 10.9886 1.5852 11.3044 1.74609 11.5827C1.90698 11.8611 2.13824 12.0922 2.41667 12.253L2.4186 12.2541L7.08333 14.9196L7.0844 14.9203C7.28693 15.037 7.50919 15.1135 7.73901 15.1466C7.81498 15.1932 7.90435 15.22 8 15.22C8.09565 15.22 8.18502 15.1932 8.26099 15.1466C8.49081 15.1135 8.71307 15.037 8.9156 14.9203L8.91667 14.9196L13.5814 12.2541L13.5833 12.253C13.8618 12.0922 14.093 11.8611 14.2539 11.5827C14.4137 11.3063 14.4985 10.9929 14.5 10.6736L14.5665 8.01252C14.5667 8.00419 14.5667 7.99585 14.5665 7.98752L14.5 5.32633C14.4987 5.04048 14.4306 4.75933 14.3016 4.50517C14.2905 4.46563 14.2743 4.42682 14.2528 4.38963C14.2282 4.34708 14.1983 4.30952 14.1644 4.27729C14.0117 4.06109 13.8137 3.87993 13.5833 3.74694L13.5814 3.74583L8.91667 1.08028L8.91564 1.07969C8.63719 0.91916 8.32142 0.834656 8 0.834656ZM8.5 14.006L13.0833 11.3869L13.0842 11.3864C13.2104 11.3134 13.3152 11.2085 13.3881 11.0823C13.4613 10.9558 13.4998 10.8122 13.5 10.6661L13.5 10.6541L13.5002 10.6541L13.5665 8.00002L13.5016 5.40184L8.5 8.29506V14.006ZM7.5 8.29505L2.5 5.40273V10.6663C2.50019 10.8124 2.53876 10.9558 2.61186 11.0823C2.68482 11.2085 2.78961 11.3134 2.91576 11.3864L2.91667 11.3869L7.5 14.006V8.29505ZM8.4186 1.94741L12.9751 4.55112L10.8387 5.78694L5.87322 2.92351L7.5814 1.94741L7.58141 1.94741L7.58333 1.9463C7.71002 1.87316 7.85372 1.83466 8 1.83466C8.14628 1.83466 8.28998 1.87316 8.41667 1.9463L8.41666 1.94631L8.4186 1.94741ZM8.00001 7.42903L10.1692 6.17425L5.19957 3.30846L3.02491 4.55111L8.00001 7.42903Z" fill="white"/>
</g>
<defs>
<clipPath id="clip0_1937_3363">
<rect width="16" height="16" fill="white"/>
</clipPath>
</defs>
</svg>
