<svg width="16" height="16" viewBox="0 0 16 16" fill="none" xmlns="http://www.w3.org/2000/svg">
<g clip-path="url(#clip0_1937_3379)">
<rect width="16" height="16" fill="white" fill-opacity="0.01"/>
<path fill-rule="evenodd" clip-rule="evenodd" d="M3.85187 7.99595C3.64735 7.98476 3.44897 7.95051 3.25928 7.89578V10.074C3.25928 10.1525 3.29049 10.2279 3.34606 10.2835C3.40163 10.339 3.47699 10.3703 3.55557 10.3703H3.85187V7.99595ZM6.65038 5.03693H9.7778V8.5036C9.92888 8.46506 10.0841 8.44516 10.24 8.44434H10.3704V6.81471H11.5556C11.7127 6.81471 11.8635 6.87714 11.9746 6.98827C12.0857 7.09941 12.1482 7.25013 12.1482 7.4073V7.7036H10.963V8.29619H12.1482V9.77767H11.4371C11.3331 9.53621 11.1607 9.3305 10.9411 9.18596C10.7215 9.04142 10.4644 8.96439 10.2015 8.96439C9.93861 8.96439 9.68149 9.04142 9.4619 9.18596C9.24232 9.3305 9.06989 9.53621 8.96594 9.77767H6.94224C6.84026 9.53444 6.66844 9.32692 6.44851 9.18136C6.22858 9.03579 5.97042 8.95872 5.70668 8.95989C5.4561 8.96542 5.21248 9.04339 5.00525 9.18439C4.79803 9.32539 4.63606 9.52339 4.53893 9.75445C4.44181 9.98551 4.41367 10.2398 4.45791 10.4865C4.50216 10.7332 4.61691 10.9618 4.78828 11.1447C4.95966 11.3276 5.18033 11.457 5.42365 11.5172C5.66696 11.5773 5.92249 11.5658 6.15938 11.4839C6.39627 11.402 6.60437 11.2532 6.75854 11.0556C6.91271 10.858 7.00636 10.62 7.02817 10.3703H8.88891C8.92656 10.6943 9.08198 10.9933 9.32562 11.2102C9.56926 11.4272 9.88414 11.5471 10.2104 11.5471C10.5366 11.5471 10.8515 11.4272 11.0952 11.2102C11.3388 10.9933 11.4942 10.6943 11.5319 10.3703H12.4445C12.523 10.3703 12.5984 10.339 12.654 10.2835C12.7095 10.2279 12.7408 10.1525 12.7408 10.074V7.4073C12.7408 7.09297 12.6159 6.79151 12.3936 6.56925C12.1714 6.34698 11.8699 6.22211 11.5556 6.22211H10.3704V4.74063C10.3704 4.66205 10.3392 4.58669 10.2836 4.53112C10.228 4.47555 10.1527 4.44434 10.0741 4.44434H6.51489C6.58159 4.63302 6.62766 4.83146 6.65038 5.03693ZM5.42312 10.923C5.51392 10.9555 5.61043 10.9691 5.70668 10.9629C5.80294 10.9691 5.89945 10.9555 5.99025 10.923C6.08105 10.8905 6.16421 10.8396 6.23459 10.7737C6.30497 10.7077 6.36107 10.628 6.39942 10.5395C6.43777 10.451 6.45756 10.3556 6.45756 10.2592C6.45756 10.1627 6.43777 10.0673 6.39942 9.97876C6.36107 9.89026 6.30497 9.81057 6.23459 9.74461C6.16421 9.67865 6.08105 9.62783 5.99025 9.5953C5.89945 9.56276 5.80294 9.5492 5.70668 9.55545C5.61043 9.5492 5.51392 9.56276 5.42312 9.5953C5.33232 9.62783 5.24916 9.67865 5.17878 9.74461C5.1084 9.81057 5.0523 9.89026 5.01395 9.97876C4.9756 10.0673 4.95581 10.1627 4.95581 10.2592C4.95581 10.3556 4.9756 10.451 5.01395 10.5395C5.0523 10.628 5.1084 10.7077 5.17878 10.7737C5.24916 10.8396 5.33232 10.8905 5.42312 10.923ZM9.81958 10.8269C9.93083 10.9086 10.0636 10.9559 10.2015 10.9629C10.3928 10.9676 10.5781 10.8964 10.717 10.7648C10.8558 10.6332 10.9368 10.4519 10.9422 10.2606C10.9426 10.1226 10.9025 9.98746 10.8268 9.872C10.7512 9.75655 10.6433 9.66584 10.5165 9.61113C10.3898 9.55642 10.2498 9.54011 10.1139 9.56423C9.97794 9.58834 9.85208 9.65182 9.7519 9.7468C9.65172 9.84177 9.58161 9.96406 9.55028 10.0985C9.51895 10.2329 9.52776 10.3736 9.57563 10.5031C9.6235 10.6326 9.70832 10.7452 9.81958 10.8269Z" fill="white"/>
<path d="M4.63535 3.91669C4.66181 3.91669 4.68759 3.92509 4.70898 3.94068C4.73036 3.95627 4.74625 3.97824 4.75435 4.00344L4.89185 4.43069C4.9496 4.45894 5.00485 4.49069 5.0576 4.52644L5.4966 4.43194C5.52248 4.42641 5.54945 4.42924 5.57362 4.44003C5.59779 4.45081 5.61792 4.46898 5.6311 4.49194L5.9776 5.09169C5.99083 5.11463 5.99643 5.14117 5.9936 5.1675C5.99077 5.19383 5.97965 5.21858 5.96185 5.23819L5.6606 5.57069C5.66498 5.63445 5.66498 5.69843 5.6606 5.76219L5.96185 6.09519C5.97965 6.11479 5.99077 6.13954 5.9936 6.16587C5.99643 6.1922 5.99083 6.21875 5.9776 6.24169L5.6311 6.84169C5.61788 6.86459 5.59774 6.88272 5.57357 6.89345C5.5494 6.90419 5.52245 6.90699 5.4966 6.90144L5.0576 6.80694C5.0051 6.84244 4.9496 6.87444 4.8921 6.90269L4.75435 7.32994C4.74625 7.35513 4.73036 7.37711 4.70898 7.3927C4.68759 7.40829 4.66181 7.41669 4.63535 7.41669H3.94235C3.91588 7.41669 3.8901 7.40829 3.86871 7.3927C3.84733 7.37711 3.83144 7.35513 3.82335 7.32994L3.6861 6.90294C3.6285 6.87477 3.57295 6.84261 3.51985 6.80669L3.0811 6.90144C3.05521 6.90696 3.02824 6.90413 3.00407 6.89335C2.9799 6.88257 2.95978 6.86439 2.9466 6.84144L2.6001 6.24169C2.58686 6.21875 2.58126 6.1922 2.58409 6.16587C2.58692 6.13954 2.59804 6.11479 2.61585 6.09519L2.9171 5.76219C2.91273 5.6986 2.91273 5.63478 2.9171 5.57119L2.61585 5.23819C2.59804 5.21858 2.58692 5.19383 2.58409 5.1675C2.58126 5.14117 2.58686 5.11463 2.6001 5.09169L2.9466 4.49169C2.95981 4.46878 2.97995 4.45066 3.00412 4.43992C3.02829 4.42918 3.05524 4.42639 3.0811 4.43194L3.51985 4.52669C3.57285 4.49094 3.62835 4.45869 3.6861 4.43044L3.8236 4.00344C3.83167 3.97832 3.84748 3.95641 3.86876 3.94082C3.89005 3.92524 3.91572 3.91679 3.9421 3.91669H4.6351H4.63535ZM4.54385 4.16669H4.03385L3.89185 4.60844L3.7961 4.65519C3.74902 4.67822 3.70359 4.70445 3.6601 4.73369L3.5716 4.79369L3.1176 4.69569L2.8626 5.13769L3.17385 5.48219L3.16635 5.58819C3.16275 5.64046 3.16275 5.69292 3.16635 5.74519L3.17385 5.85119L2.8621 6.19569L3.11735 6.63769L3.57135 6.53994L3.65985 6.59969C3.70334 6.62892 3.74877 6.65515 3.79585 6.67819L3.8916 6.72494L4.03385 7.16669H4.54435L4.68685 6.72469L4.78235 6.67819C4.82937 6.65521 4.87472 6.62898 4.9181 6.59969L5.00635 6.53994L5.4606 6.63769L5.7156 6.19569L5.4041 5.85119L5.4116 5.74519C5.4152 5.69283 5.4152 5.64029 5.4116 5.58794L5.4041 5.48194L5.71585 5.13769L5.4606 4.69569L5.00635 4.79319L4.9181 4.73369C4.87473 4.70439 4.82937 4.67816 4.78235 4.65519L4.68685 4.60869L4.5441 4.16669H4.54385ZM4.28885 4.91669C4.48776 4.91669 4.67852 4.9957 4.81918 5.13636C4.95983 5.27701 5.03885 5.46777 5.03885 5.66669C5.03885 5.8656 4.95983 6.05637 4.81918 6.19702C4.67852 6.33767 4.48776 6.41669 4.28885 6.41669C4.08993 6.41669 3.89917 6.33767 3.75852 6.19702C3.61786 6.05637 3.53885 5.8656 3.53885 5.66669C3.53885 5.46777 3.61786 5.27701 3.75852 5.13636C3.89917 4.9957 4.08993 4.91669 4.28885 4.91669ZM4.28885 5.16669C4.15624 5.16669 4.02906 5.21937 3.93529 5.31313C3.84152 5.4069 3.78885 5.53408 3.78885 5.66669C3.78885 5.7993 3.84152 5.92647 3.93529 6.02024C4.02906 6.11401 4.15624 6.16669 4.28885 6.16669C4.42145 6.16669 4.54863 6.11401 4.6424 6.02024C4.73617 5.92647 4.78885 5.7993 4.78885 5.66669C4.78885 5.53408 4.73617 5.4069 4.6424 5.31313C4.54863 5.21937 4.42145 5.16669 4.28885 5.16669Z" fill="white"/>
</g>
<defs>
<clipPath id="clip0_1937_3379">
<rect width="16" height="16" fill="white"/>
</clipPath>
</defs>
</svg>
