<svg width="36" height="36" viewBox="0 0 36 36" fill="none" xmlns="http://www.w3.org/2000/svg">
<path d="M15.75 29.25H5.625C5.32663 29.25 5.04048 29.1315 4.82951 28.9205C4.61853 28.7095 4.5 28.4234 4.5 28.125V9C4.5 8.70163 4.61853 8.41548 4.82951 8.20451C5.04048 7.99353 5.32663 7.875 5.625 7.875H13.1203C13.3636 7.876 13.6001 7.95485 13.7953 8.1L17.7047 11.025C17.8999 11.1702 18.1364 11.249 18.3797 11.25H30.375C30.6734 11.25 30.9595 11.3685 31.1705 11.5795C31.3815 11.7905 31.5 12.0766 31.5 12.375V14.625" stroke="#15BE62" stroke-width="2" stroke-linecap="round" stroke-linejoin="round"/>
<path d="M31.5 23.0625H21.375V29.25H31.5V23.0625Z" stroke="#15BE62" stroke-width="2" stroke-linecap="round" stroke-linejoin="round"/>
<path d="M23.625 23.0625V21.375C23.625 20.6291 23.9213 19.9137 24.4488 19.3863C24.9762 18.8588 25.6916 18.5625 26.4375 18.5625C27.1834 18.5625 27.8988 18.8588 28.4262 19.3863C28.9537 19.9137 29.25 20.6291 29.25 21.375V23.0625" stroke="#15BE62" stroke-width="2" stroke-linecap="round" stroke-linejoin="round"/>
</svg>
