<svg width="24" height="24" viewBox="0 0 24 24" fill="none" xmlns="http://www.w3.org/2000/svg">
<path d="M8.18534 9.07603V9.57603H8.68534H9.66005C9.68254 9.57603 9.70412 9.58496 9.72003 9.60087C9.73593 9.61678 9.74487 9.63835 9.74487 9.66085C9.74487 9.68334 9.73593 9.70492 9.72003 9.72083C9.70412 9.73674 9.68254 9.74567 9.66005 9.74567H8.68534H8.18534V10.2457V11.2204C8.18534 11.2429 8.1764 11.2644 8.1605 11.2804L8.51405 11.6339L8.1605 11.2804C8.14459 11.2963 8.12301 11.3052 8.10052 11.3052C8.07802 11.3052 8.05645 11.2963 8.04054 11.2804C8.02463 11.2644 8.01569 11.2429 8.01569 11.2204V10.2457V9.74567H7.51569H6.54099C6.51849 9.74567 6.49692 9.73673 6.48101 9.72083C6.4651 9.70492 6.45617 9.68334 6.45617 9.66085C6.45617 9.63835 6.4651 9.61678 6.48101 9.60087C6.49692 9.58496 6.51849 9.57603 6.54099 9.57603H7.51569H8.01569V9.07603V8.10132C8.01569 8.07882 8.02463 8.05725 8.04054 8.04134C8.05645 8.02543 8.07802 8.0165 8.10052 8.0165C8.12301 8.0165 8.14459 8.02543 8.1605 8.04134L8.50334 7.6985L8.1605 8.04134C8.1764 8.05725 8.18534 8.07882 8.18534 8.10132V9.07603ZM22.4916 18.6815L22.4908 18.6825C22.2315 19.053 21.8866 19.3555 21.4855 19.5644C21.0846 19.7732 20.6392 19.8824 20.1872 19.8826C19.4453 19.8807 18.7341 19.587 18.2071 19.0652L18.193 19.0499L14.2633 14.5936L14.114 14.4243H13.8883H10.1104H9.88448L9.73517 14.5938L5.83759 19.0183L5.81961 19.0322L5.79694 19.055C5.27084 19.5829 4.55679 19.8805 3.81151 19.8826C3.40093 19.8822 2.9954 19.792 2.62338 19.6183C2.25116 19.4445 1.92152 19.1913 1.65759 18.8765C1.39367 18.5617 1.20187 18.1929 1.09567 17.7961C0.989464 17.3993 0.971432 16.984 1.04284 16.5795L1.05045 16.5363V16.531L2.63587 8.38003L2.63595 8.38004L2.63754 8.37102C2.84663 7.17997 3.46877 6.10071 4.39464 5.32284C5.32045 4.54502 6.49074 4.11832 7.69991 4.11768C7.69999 4.11768 7.70008 4.11768 7.70016 4.11768L16.2877 4.11768C17.4941 4.11928 18.6618 4.54353 19.5879 5.31669C20.5027 6.08046 21.1246 7.13702 21.3487 8.30657V8.327L21.358 8.37439L22.9482 16.5321V16.539L22.9561 16.5829C23.0213 16.946 23.0138 17.3185 22.9341 17.6787C22.8543 18.0389 22.7039 18.3798 22.4916 18.6815ZM7.69991 4.28732L7.69953 4.28732C6.52948 4.28822 5.39719 4.70157 4.50175 5.45471C3.60631 6.20784 3.00504 7.25255 2.80366 8.40515L2.80221 8.41343L2.80104 8.42175C2.80026 8.42734 2.79956 8.43293 2.79896 8.43854L1.20884 16.6056L1.20875 16.6056L1.20704 16.6154C1.11094 17.1672 1.19256 17.7353 1.44014 18.2378C1.68773 18.7403 2.08848 19.1512 2.58462 19.4112C3.08077 19.6712 3.64667 19.767 4.20075 19.6847C4.75483 19.6024 5.26845 19.3462 5.66758 18.9532L5.68017 18.9408L5.69185 18.9276L9.78321 14.2858C9.78343 14.2855 9.78366 14.2853 9.78389 14.285C9.79176 14.2765 9.80132 14.2696 9.81198 14.2648C9.82295 14.26 9.83482 14.2575 9.84682 14.2575L9.84937 14.2575L16.288 14.2546C16.2881 14.2546 16.2882 14.2546 16.2883 14.2546C17.6099 14.2546 18.8774 13.7295 19.812 12.7949C20.7466 11.8603 21.2717 10.5927 21.2717 9.27097C21.2717 7.94922 20.7466 6.68161 19.812 5.747C18.8774 4.81238 17.6098 4.28732 16.288 4.28732L7.69991 4.28732ZM22.7916 16.6154L22.7917 16.6153L22.7899 16.6057L21.8356 11.6981L21.5548 10.2539L20.8975 11.5701C20.4697 12.4268 19.8118 13.1475 18.9977 13.6516C18.1835 14.1557 17.2451 14.4232 16.2875 14.4243H15.4469H14.3401L15.0717 15.2547L18.3067 18.9274L18.3184 18.9408L18.3311 18.9532C18.7302 19.3462 19.2439 19.6024 19.7979 19.6847C20.352 19.767 20.9179 19.6712 21.4141 19.4112C21.9102 19.1512 22.311 18.7403 22.5585 18.2378C22.8061 17.7353 22.8877 17.1672 22.7916 16.6154ZM16.6779 9.74567H14.3386C14.3161 9.74567 14.2946 9.73673 14.2787 9.72083C14.2627 9.70492 14.2538 9.68334 14.2538 9.66085C14.2538 9.63835 14.2627 9.61678 14.2787 9.60087C14.2946 9.58496 14.3161 9.57603 14.3386 9.57603H16.6779C16.7004 9.57603 16.722 9.58496 16.7379 9.60087C16.7538 9.61678 16.7627 9.63835 16.7627 9.66085C16.7627 9.68335 16.7538 9.70492 16.7379 9.72083C16.722 9.73674 16.7004 9.74567 16.6779 9.74567Z" fill="white" stroke="white"/>
</svg>
