<svg width="16" height="16" viewBox="0 0 16 16" fill="none" xmlns="http://www.w3.org/2000/svg">
<path d="M5.13635 12.4448L5.13635 12.4439L4.80157 12.4437C4.32949 12.4434 3.87318 12.2459 3.5341 11.8886C3.19446 11.5308 3.00104 11.0422 3.00134 10.5295C3.00165 10.0168 3.19565 9.5284 3.5357 9.17103C3.87519 8.81424 4.33172 8.61737 4.8038 8.61768L5.13902 8.6179L5.13902 8.61655L5.32875 8.61655L5.66375 8.61655L5.66375 8.61374L9.61747 8.61374L9.61935 8.61374L9.61935 8.61374L10.6167 8.60812L10.6177 8.60812L10.7487 8.60812L10.7615 8.60812L10.7614 8.60788C11.2755 8.58829 11.7577 8.35682 12.1055 7.96952C12.4528 7.58277 12.6391 7.0712 12.6289 6.54572C12.6186 6.02022 12.4125 5.51672 12.05 5.14484C11.6872 4.77259 11.1962 4.56207 10.6821 4.56445M5.13635 12.4448L10.683 4.89945M5.13635 12.4448L9.99801 12.4448L9.99801 11.9902L4.83181 11.9902L4.81203 11.9902C4.812 11.9902 4.81197 11.9902 4.81194 11.9902L4.49681 11.9902L4.49681 11.953C4.23834 11.8911 4.00103 11.7539 3.81351 11.5566L4.05635 11.3259L3.81351 11.5566C3.55229 11.2817 3.40833 10.9124 3.40833 10.5307C3.40833 10.1489 3.55229 9.77959 3.81351 9.50471C4.00155 9.30685 4.23965 9.16952 4.49894 9.10784L4.49894 9.06886L4.83394 9.06886L10.1498 9.06886L5.13635 12.4448ZM10.6821 4.56445C10.6818 4.56445 10.6815 4.56445 10.6813 4.56445L10.683 4.89945M10.6821 4.56445L10.683 4.56445L10.683 4.89945M10.6821 4.56445L5.99849 4.56445M10.683 4.89945L5.66634 4.89945M5.99849 4.56445L6.00133 4.89658L5.66634 4.89945M5.99849 4.56445L5.66634 4.56445L5.66634 4.89945M5.99849 4.56445L5.66634 4.89945M5.99174 3.77545L5.65672 3.77545L5.65959 4.11045L5.9946 4.11045L5.99174 3.77545ZM10.6839 4.11045C10.683 4.11044 10.6821 4.11042 10.6812 4.11041L10.6867 3.77545L10.6867 4.11045L10.6839 4.11045ZM10.7434 9.06324L10.7492 9.06324L10.7492 9.39824L10.7379 9.06343C10.7397 9.06337 10.7415 9.06331 10.7434 9.06324Z" fill="white" stroke="white" stroke-width="0.67"/>
<path fill-rule="evenodd" clip-rule="evenodd" d="M3.00747 2C2.78752 1.99979 2.56968 2.04081 2.36642 2.1207C2.16317 2.2006 1.97849 2.3178 1.82295 2.46561C1.66742 2.61342 1.54409 2.78893 1.46002 2.98209C1.37595 3.17525 1.33279 3.38227 1.33301 3.5913C1.33301 4.78451 3.00747 6.54627 3.00747 6.54627C3.00747 6.54627 4.68194 4.78451 4.68194 3.5913C4.68216 3.38227 4.639 3.17525 4.55493 2.98209C4.47086 2.78893 4.34753 2.61342 4.192 2.46561C4.03646 2.3178 3.85178 2.2006 3.64853 2.1207C3.44527 2.04081 3.22743 1.99979 3.00747 2ZM2.67541 4.06359C2.7737 4.12601 2.88926 4.15932 3.00747 4.15932C3.16595 4.15918 3.31789 4.09929 3.42995 3.9928C3.54201 3.8863 3.60503 3.74191 3.60518 3.5913C3.60518 3.47896 3.57012 3.36914 3.50445 3.27573C3.43877 3.18232 3.34542 3.10952 3.23621 3.06652C3.12699 3.02353 3.00681 3.01228 2.89087 3.0342C2.77493 3.05612 2.66843 3.11022 2.58484 3.18965C2.50125 3.26909 2.44432 3.3703 2.42126 3.48049C2.39819 3.59067 2.41003 3.70488 2.45527 3.80867C2.50051 3.91246 2.57712 4.00118 2.67541 4.06359Z" fill="white"/>
<path fill-rule="evenodd" clip-rule="evenodd" d="M13.0075 9.3335C12.7875 9.33329 12.5697 9.3743 12.3664 9.4542C12.1632 9.53409 11.9785 9.6513 11.823 9.79911C11.6674 9.94692 11.5441 10.1224 11.46 10.3156C11.3759 10.5087 11.3328 10.7158 11.333 10.9248C11.333 12.118 13.0075 13.8798 13.0075 13.8798C13.0075 13.8798 14.6819 12.118 14.6819 10.9248C14.6822 10.7158 14.639 10.5087 14.5549 10.3156C14.4709 10.1224 14.3475 9.94692 14.192 9.79911C14.0365 9.6513 13.8518 9.53409 13.6485 9.4542C13.4453 9.3743 13.2274 9.33329 13.0075 9.3335ZM12.6754 11.3971C12.7737 11.4595 12.8893 11.4928 13.0075 11.4928C13.1659 11.4927 13.3179 11.4328 13.4299 11.3263C13.542 11.2198 13.605 11.0754 13.6052 10.9248C13.6052 10.8125 13.5701 10.7026 13.5044 10.6092C13.4388 10.5158 13.3454 10.443 13.2362 10.4C13.127 10.357 13.0068 10.3458 12.8909 10.3677C12.7749 10.3896 12.6684 10.4437 12.5848 10.5232C12.5012 10.6026 12.4443 10.7038 12.4213 10.814C12.3982 10.9242 12.41 11.0384 12.4553 11.1422C12.5005 11.246 12.5771 11.3347 12.6754 11.3971Z" fill="white"/>
</svg>
