<svg width="16" height="13" viewBox="0 0 16 13" fill="none" xmlns="http://www.w3.org/2000/svg">
<path d="M10.144 10.0078V10.0156L11.8625 12.9922H10.7265L8.99677 9.99609L9.00353 9.99219H8.99H6.516V9.98438L6.50923 9.99609L4.77949 12.9922H3.64353L5.36877 10.0039L5.362 10L5.35523 9.99609L5.34847 9.99219H2.25C2.11946 9.99219 1.99427 9.94033 1.90197 9.84803C1.80967 9.75573 1.75781 9.63054 1.75781 9.5V1H1.75V0.992188H0.75C0.619464 0.992188 0.494274 0.940332 0.401971 0.848029C0.309668 0.755726 0.257812 0.630536 0.257812 0.5C0.257812 0.369464 0.309668 0.244274 0.401971 0.151971C0.494274 0.0596679 0.619464 0.0078125 0.75 0.0078125H14.75C14.8805 0.0078125 15.0057 0.0596679 15.098 0.151971C15.1903 0.244274 15.2422 0.369464 15.2422 0.5C15.2422 0.630536 15.1903 0.755726 15.098 0.848029C15.0057 0.940332 14.8805 0.992188 14.75 0.992188H13.75V1H13.7422V9.5C13.7422 9.63054 13.6903 9.75573 13.598 9.84803C13.5057 9.94033 13.3805 9.99219 13.25 9.99219H10.144V10V10.0078ZM12.75 0.992188H2.75V1H2.74219V9H2.75V9.00781H12.75V9H12.7578V1H12.75V0.992188ZM5.25 5.00781C5.38054 5.00781 5.50573 5.05967 5.59803 5.15197C5.69033 5.24427 5.74219 5.36946 5.74219 5.5V6.5C5.74219 6.63054 5.69033 6.75573 5.59803 6.84803C5.50573 6.94033 5.38054 6.99219 5.25 6.99219C5.11946 6.99219 4.99427 6.94033 4.90197 6.84803C4.80967 6.75573 4.75781 6.63054 4.75781 6.5V5.5C4.75781 5.36946 4.80967 5.24427 4.90197 5.15197C4.99427 5.05967 5.11946 5.00781 5.25 5.00781ZM7.75 4.00781C7.88054 4.00781 8.00573 4.05967 8.09803 4.15197C8.19033 4.24427 8.24219 4.36946 8.24219 4.5V6.5C8.24219 6.63054 8.19033 6.75573 8.09803 6.84803C8.00573 6.94033 7.88054 6.99219 7.75 6.99219C7.61946 6.99219 7.49427 6.94033 7.40197 6.84803C7.30967 6.75573 7.25781 6.63054 7.25781 6.5V4.5C7.25781 4.36946 7.30967 4.24427 7.40197 4.15197C7.49427 4.05967 7.61946 4.00781 7.75 4.00781ZM10.25 3.00781C10.3805 3.00781 10.5057 3.05967 10.598 3.15197C10.6903 3.24427 10.7422 3.36946 10.7422 3.5V6.5C10.7422 6.63054 10.6903 6.75573 10.598 6.84803C10.5057 6.94033 10.3805 6.99219 10.25 6.99219C10.1195 6.99219 9.99427 6.94033 9.90197 6.84803C9.80967 6.75573 9.75781 6.63054 9.75781 6.5V3.5C9.75781 3.36946 9.80967 3.24427 9.90197 3.15197C9.99427 3.05967 10.1195 3.00781 10.25 3.00781Z" fill="white" stroke="white" stroke-width="0.015625"/>
</svg>
