<svg width="16" height="16" viewBox="0 0 16 16" fill="none" xmlns="http://www.w3.org/2000/svg">
<path d="M13.8171 3.97597C13.8205 3.25178 13.5241 2.55881 12.9976 2.04559C12.4714 1.53273 11.7575 1.2399 11.011 1.22536C10.2645 1.21082 9.53904 1.47558 8.99164 1.9671C8.44369 2.45913 8.11771 3.13985 8.09013 3.86378L8.08988 3.86377V3.87647V4.07342V4.07445L8.08145 5.57143V5.57331V11.673H8.07723V12.0064V12.4601H8.07533L8.07555 12.7937C8.07604 13.5495 7.76073 14.2783 7.19296 14.8185C6.62462 15.3593 5.85003 15.6662 5.0388 15.6667C4.22758 15.6671 3.45258 15.3612 2.88351 14.8211C2.31501 14.2815 1.99874 13.5531 1.99824 12.7973L1.99802 12.4642H1.99656V11.5278H3.01672V12.7518V12.7815V13.0851H3.04169C3.10882 13.4906 3.30903 13.8663 3.6145 14.1566C3.9945 14.5177 4.50644 14.7178 5.03689 14.7178C5.56735 14.7178 6.07929 14.5177 6.45929 14.1566C6.76557 13.8656 6.96602 13.4886 7.03263 13.0819H7.06044V12.7486V4.7738L7.06885 4.07848L7.06887 4.07848V4.07445V3.88143C7.09963 3.01375 7.45476 2.18191 8.07504 1.53598C8.69701 0.888289 9.54485 0.470336 10.4671 0.361546C11.3893 0.252748 12.3209 0.460902 13.0933 0.946097C13.8654 1.43108 14.4259 2.15957 14.6785 2.99727L14.6785 2.99728L14.6794 3.00027C14.778 3.31622 14.8308 3.64321 14.8364 3.97229V7.41602V7.61131L15.0067 7.70679C15.2645 7.85129 15.4618 8.07043 15.5707 8.32689C15.6796 8.58339 15.6962 8.86578 15.6185 9.13142C15.5408 9.39735 15.3719 9.63486 15.1342 9.80498C14.8962 9.97528 14.6036 10.0676 14.3017 10.065C13.9998 10.0624 13.7091 9.96513 13.4745 9.79091C13.2402 9.61688 13.076 9.37668 13.0033 9.1096C12.9307 8.84279 12.9526 8.56069 13.0664 8.30594C13.1804 8.05085 13.3813 7.83513 13.6416 7.69518L13.8171 7.60082V7.4016V3.97597ZM13.8171 3.97597C13.8171 3.97622 13.8171 3.97648 13.8171 3.97674L13.4837 3.97506M13.8171 3.97597V3.97506H13.4837M13.4837 3.97506V7.4016L8.42322 4.07445V3.87647C8.44726 3.24548 8.73141 2.64877 9.21435 2.21512C9.69728 1.78148 10.3403 1.54569 11.0045 1.55863C11.6688 1.57157 12.3011 1.83221 12.7649 2.2843C13.2287 2.73638 13.4869 3.34366 13.4837 3.97506ZM0.333335 4.35739L0.333334 4.35704C0.333051 4.08975 0.388214 3.82459 0.496154 3.57659C0.604114 3.32855 0.762983 3.10203 0.964544 2.91048C1.16614 2.7189 1.40643 2.56613 1.67207 2.46171C1.93772 2.35729 2.22298 2.30349 2.51138 2.30377L2.51202 2.30377C2.80042 2.30349 3.08568 2.35729 3.35134 2.46172C3.61697 2.56613 3.85726 2.7189 4.05886 2.91048C4.26042 3.10203 4.41929 3.32855 4.52725 3.57659C4.63519 3.82459 4.69035 4.08975 4.69007 4.35704V4.35739C4.69007 4.73388 4.55584 5.1827 4.32944 5.66289C4.10528 6.13835 3.80314 6.6189 3.49576 7.05182C3.18909 7.48374 2.8817 7.86199 2.65068 8.13249C2.60039 8.19137 2.55379 8.24506 2.5117 8.293C2.46961 8.24506 2.42301 8.19137 2.37272 8.13249C2.1417 7.86199 1.83431 7.48374 1.52764 7.05182C1.22026 6.6189 0.918126 6.13835 0.693958 5.66289C0.467561 5.1827 0.333335 4.73388 0.333335 4.35739ZM3.74159 4.35772V4.35739C3.74159 4.11905 3.66713 3.88758 3.52984 3.69231C3.39271 3.49727 3.19962 3.34773 2.97689 3.26005C2.75427 3.17242 2.51019 3.14972 2.27488 3.1942C2.03951 3.23869 1.82111 3.34889 1.64812 3.51329C1.47494 3.67786 1.35493 3.88965 1.30611 4.12288C1.25726 4.35625 1.28251 4.59795 1.37782 4.81663C1.47304 5.03508 1.63304 5.21903 1.83492 5.34722C2.03664 5.47531 2.27212 5.54275 2.5117 5.54275L2.512 5.54275C2.83269 5.54246 3.14336 5.42142 3.37504 5.20125C3.60729 4.98054 3.74127 4.67755 3.74159 4.35772Z" fill="#444B55" stroke="white" stroke-width="0.666667"/>
</svg>
