<svg width="24" height="24" viewBox="0 0 24 24" fill="none" xmlns="http://www.w3.org/2000/svg">
<path fill-rule="evenodd" clip-rule="evenodd" d="M12.3536 8.85355L15.5355 5.67157C15.7308 5.47631 15.7308 5.15973 15.5355 4.96447C15.3403 4.7692 15.0237 4.7692 14.8284 4.96447L12.5 7.29289V2.5H11.5V7.29289L9.17157 4.96447C8.97631 4.7692 8.65973 4.7692 8.46447 4.96447C8.2692 5.15973 8.2692 5.47631 8.46447 5.67157L11.6464 8.85355C11.8417 9.04882 12.1583 9.04882 12.3536 8.85355ZM5.67157 8.46447L8.85355 11.6464C9.04882 11.8417 9.04882 12.1583 8.85355 12.3536L5.67157 15.5355C5.47631 15.7308 5.15973 15.7308 4.96447 15.5355C4.7692 15.3403 4.7692 15.0237 4.96447 14.8284L7.29289 12.5H2.5V11.5H7.29289L4.96447 9.17157C4.7692 8.97631 4.7692 8.65973 4.96447 8.46447C5.15973 8.2692 5.47631 8.2692 5.67157 8.46447ZM18.3284 8.46447L15.1464 11.6464C14.9512 11.8417 14.9512 12.1583 15.1464 12.3536L18.3284 15.5355C18.5237 15.7308 18.8403 15.7308 19.0355 15.5355C19.2308 15.3403 19.2308 15.0237 19.0355 14.8284L16.7071 12.5H21.5V11.5H16.7071L19.0355 9.17157C19.2308 8.97631 19.2308 8.65973 19.0355 8.46447C18.8403 8.2692 18.5237 8.2692 18.3284 8.46447ZM15.5355 18.3284L12.3536 15.1464C12.1583 14.9512 11.8417 14.9512 11.6464 15.1464L8.46447 18.3284C8.2692 18.5237 8.2692 18.8403 8.46447 19.0355C8.65973 19.2308 8.97631 19.2308 9.17157 19.0355L11.5 16.7071V21.5H12.5V16.7071L14.8284 19.0355C15.0237 19.2308 15.3403 19.2308 15.5355 19.0355C15.7308 18.8403 15.7308 18.5237 15.5355 18.3284ZM13 12C13 12.5523 12.5523 13 12 13C11.4477 13 11 12.5523 11 12C11 11.4477 11.4477 11 12 11C12.5523 11 13 11.4477 13 12ZM14 12C14 13.1046 13.1046 14 12 14C10.8954 14 10 13.1046 10 12C10 10.8954 10.8954 10 12 10C13.1046 10 14 10.8954 14 12Z" fill="white"/>
</svg>
