<svg width="16" height="16" viewBox="0 0 16 16" fill="none" xmlns="http://www.w3.org/2000/svg">
<path d="M3.0015 7.99996C3.0015 7.45164 3.45152 7.00163 3.99984 7.00163C4.54816 7.00163 4.99817 7.45164 4.99817 7.99996C4.99817 8.54828 4.54816 8.99829 3.99984 8.99829C3.45152 8.99829 3.0015 8.54828 3.0015 7.99996ZM11.0015 7.99996C11.0015 7.45164 11.4515 7.00163 11.9998 7.00163C12.5482 7.00163 12.9982 7.45164 12.9982 7.99996C12.9982 8.54828 12.5482 8.99829 11.9998 8.99829C11.4515 8.99829 11.0015 8.54828 11.0015 7.99996ZM7.0015 7.99996C7.0015 7.45164 7.45152 7.00163 7.99984 7.00163C8.54815 7.00163 8.99817 7.45164 8.99817 7.99996C8.99817 8.54828 8.54815 8.99829 7.99984 8.99829C7.45152 8.99829 7.0015 8.54828 7.0015 7.99996Z" fill="black" fill-opacity="0.54" stroke="white" stroke-width="0.67"/>
</svg>
