<svg width="14" height="16" viewBox="0 0 14 16" fill="none" xmlns="http://www.w3.org/2000/svg">
<path fill-rule="evenodd" clip-rule="evenodd" d="M7 0.834595C6.67858 0.834595 6.36281 0.919099 6.08436 1.07962L6.08333 1.08021L1.4186 3.74577L1.41859 3.74577L1.41667 3.74688C1.1863 3.87988 0.98823 4.06107 0.835583 4.27731C0.801702 4.30951 0.771804 4.34705 0.747209 4.38957C0.725719 4.42672 0.709541 4.46549 0.698442 4.50499C0.568486 4.76109 0.500296 5.0446 0.5 5.33271L0.5 5.33323V10.6666L0.5 10.6671C0.50033 10.9886 0.585198 11.3043 0.74609 11.5827C0.906982 11.861 1.13824 12.0922 1.41667 12.2529L1.4186 12.254L6.08333 14.9196L6.0844 14.9202C6.28693 15.0369 6.50919 15.1135 6.73901 15.1465C6.81498 15.1931 6.90435 15.22 7 15.22C7.09565 15.22 7.18502 15.1931 7.26099 15.1465C7.49081 15.1135 7.71307 15.0369 7.9156 14.9202L7.91667 14.9196L12.5814 12.254L12.5833 12.2529C12.8618 12.0922 13.093 11.861 13.2539 11.5827C13.4137 11.3062 13.4985 10.9928 13.5 10.6735L13.5665 8.01246C13.5667 8.00413 13.5667 7.99579 13.5665 7.98746L13.5 5.32627C13.4987 5.04041 13.4306 4.75927 13.3016 4.50511C13.2905 4.46557 13.2743 4.42676 13.2528 4.38957C13.2282 4.34702 13.1983 4.30946 13.1644 4.27723C13.0117 4.06102 12.8137 3.87986 12.5833 3.74688L12.5814 3.74577L7.91667 1.08021L7.91564 1.07962C7.63719 0.919099 7.32142 0.834595 7 0.834595ZM7.5 14.0059L12.0833 11.3869L12.0842 11.3864C12.2104 11.3133 12.3152 11.2084 12.3881 11.0822C12.4613 10.9557 12.4998 10.8122 12.5 10.666L12.5 10.6541L12.5002 10.6541L12.5665 7.99996L12.5016 5.40178L7.5 8.295V14.0059ZM6.5 8.29499L1.5 5.40266V10.6663C1.50019 10.8123 1.53876 10.9558 1.61186 11.0822C1.68482 11.2084 1.78961 11.3133 1.91576 11.3864L1.91667 11.3869L6.5 14.0059V8.29499ZM7.4186 1.94735L11.9751 4.55106L9.83871 5.78688L4.87322 2.92345L6.5814 1.94735L6.58141 1.94735L6.58333 1.94624C6.71002 1.8731 6.85372 1.83459 7 1.83459C7.14628 1.83459 7.28998 1.8731 7.41667 1.94624L7.41666 1.94624L7.4186 1.94735ZM7.00001 7.42897L9.16916 6.17419L4.19957 3.30839L2.02491 4.55105L7.00001 7.42897Z" fill="white"/>
</svg>
