<svg width="15" height="15" viewBox="0 0 15 15" fill="none" xmlns="http://www.w3.org/2000/svg">
<path d="M11.3333 1.00004C11.5083 0.824943 11.7162 0.686049 11.945 0.591288C12.1738 0.496527 12.419 0.447754 12.6666 0.447754C12.9142 0.447754 13.1594 0.496527 13.3882 0.591288C13.617 0.686049 13.8248 0.824943 13.9999 1.00004C14.175 1.17513 14.3139 1.383 14.4087 1.61178C14.5034 1.84055 14.5522 2.08575 14.5522 2.33337C14.5522 2.58099 14.5034 2.82619 14.4087 3.05497C14.3139 3.28374 14.175 3.49161 13.9999 3.66671L4.99992 12.6667L1.33325 13.6667L2.33325 10L11.3333 1.00004Z" stroke="white" stroke-width="0.67" stroke-linecap="round" stroke-linejoin="round"/>
</svg>
