<svg width="10" height="8" viewBox="0 0 10 8" fill="none" xmlns="http://www.w3.org/2000/svg">
<path fill-rule="evenodd" clip-rule="evenodd" d="M0.85187 3.99595C0.647351 3.98476 0.448969 3.95051 0.259277 3.89578V6.07397C0.259277 6.15255 0.290494 6.22791 0.346061 6.28348C0.401627 6.33905 0.476991 6.37026 0.555574 6.37026H0.85187V3.99595ZM3.65038 1.03693H6.7778V4.5036C6.92888 4.46506 7.0841 4.44516 7.24002 4.44434H7.37039V2.81471H8.55557C8.71274 2.81471 8.86347 2.87714 8.9746 2.98827C9.08573 3.09941 9.14817 3.25013 9.14817 3.4073V3.7036H7.96298V4.29619H9.14817V5.77767H8.43706C8.33311 5.53621 8.16068 5.3305 7.9411 5.18596C7.72151 5.04142 7.46439 4.96439 7.2015 4.96439C6.93861 4.96439 6.68149 5.04142 6.4619 5.18596C6.24232 5.3305 6.06989 5.53621 5.96594 5.77767H3.94224C3.84026 5.53444 3.66844 5.32692 3.44851 5.18136C3.22858 5.03579 2.97042 4.95872 2.70668 4.95989C2.4561 4.96542 2.21248 5.04339 2.00525 5.18439C1.79803 5.32539 1.63606 5.52339 1.53893 5.75445C1.44181 5.98551 1.41367 6.23975 1.45792 6.48646C1.50216 6.73317 1.61691 6.96179 1.78828 7.14469C1.95966 7.3276 2.18033 7.45696 2.42365 7.51715C2.66696 7.57735 2.92249 7.56579 3.15938 7.48389C3.39627 7.40199 3.60437 7.25324 3.75854 7.05562C3.91271 6.858 4.00636 6.61996 4.02817 6.37026H5.88891C5.92656 6.69433 6.08198 6.99327 6.32562 7.21024C6.56926 7.42722 6.88414 7.5471 7.21039 7.5471C7.53664 7.5471 7.85152 7.42722 8.09516 7.21024C8.3388 6.99327 8.49422 6.69433 8.53187 6.37026H9.44446C9.52304 6.37026 9.59841 6.33905 9.65398 6.28348C9.70954 6.22791 9.74076 6.15255 9.74076 6.07397V3.4073C9.74076 3.09297 9.61589 2.79151 9.39363 2.56925C9.17136 2.34698 8.8699 2.22211 8.55557 2.22211H7.37039V0.740632C7.37039 0.66205 7.33917 0.586685 7.28361 0.531119C7.22804 0.475553 7.15267 0.444336 7.07409 0.444336H3.51489C3.58159 0.633023 3.62766 0.831457 3.65038 1.03693ZM2.42312 6.923C2.51392 6.95554 2.61043 6.9691 2.70668 6.96285C2.80294 6.9691 2.89945 6.95554 2.99025 6.923C3.08105 6.89047 3.16421 6.83965 3.23459 6.77369C3.30497 6.70773 3.36107 6.62804 3.39942 6.53954C3.43777 6.45103 3.45756 6.35561 3.45756 6.25915C3.45756 6.1627 3.43777 6.06727 3.39942 5.97876C3.36107 5.89026 3.30497 5.81057 3.23459 5.74461C3.16421 5.67865 3.08105 5.62783 2.99025 5.5953C2.89945 5.56276 2.80294 5.5492 2.70668 5.55545C2.61043 5.5492 2.51392 5.56276 2.42312 5.5953C2.33232 5.62783 2.24916 5.67865 2.17878 5.74461C2.1084 5.81057 2.0523 5.89026 2.01395 5.97876C1.9756 6.06727 1.95581 6.1627 1.95581 6.25915C1.95581 6.35561 1.9756 6.45103 2.01395 6.53954C2.0523 6.62804 2.1084 6.70773 2.17878 6.77369C2.24916 6.83965 2.33232 6.89047 2.42312 6.923ZM6.81958 6.82689C6.93083 6.90862 7.06363 6.95589 7.2015 6.96285C7.39276 6.96764 7.57811 6.89641 7.71696 6.76479C7.8558 6.63316 7.93681 6.45187 7.94224 6.26063C7.94265 6.12259 7.90252 5.98746 7.82685 5.872C7.75118 5.75655 7.64328 5.66584 7.51654 5.61113C7.3898 5.55642 7.24979 5.54011 7.11386 5.56423C6.97794 5.58834 6.85208 5.65182 6.7519 5.7468C6.65172 5.84177 6.58161 5.96406 6.55028 6.0985C6.51895 6.23295 6.52776 6.37363 6.57563 6.50311C6.6235 6.63259 6.70832 6.74517 6.81958 6.82689Z" fill="white"/>
</svg>
