<svg width="15" height="14" viewBox="0 0 15 14" fill="none" xmlns="http://www.w3.org/2000/svg">
<mask id="path-1-inside-1_1552_5439" fill="white">
<path d="M8.70789 0C8.81374 3.33582e-06 8.91687 0.0336038 9.00241 0.0959625C9.08795 0.158321 9.15149 0.24622 9.18389 0.347L9.73389 2.056C9.96489 2.169 10.1859 2.296 10.3969 2.439L12.1529 2.061C12.2564 2.03889 12.3643 2.05022 12.461 2.09335C12.5577 2.13648 12.6382 2.20919 12.6909 2.301L14.0769 4.7C14.1298 4.79176 14.1522 4.89795 14.1409 5.00327C14.1296 5.10859 14.0851 5.20759 14.0139 5.286L12.8089 6.616C12.8264 6.87103 12.8264 7.12697 12.8089 7.382L14.0139 8.714C14.0851 8.79241 14.1296 8.89141 14.1409 8.99673C14.1522 9.10205 14.1298 9.20824 14.0769 9.3L12.6909 11.7C12.638 11.7916 12.5575 11.8641 12.4608 11.9071C12.3641 11.95 12.2563 11.9612 12.1529 11.939L10.3969 11.561C10.1869 11.703 9.96489 11.831 9.73489 11.944L9.18389 13.653C9.15149 13.7538 9.08795 13.8417 9.00241 13.904C8.91687 13.9664 8.81374 14 8.70789 14H5.93589C5.83003 14 5.7269 13.9664 5.64136 13.904C5.55582 13.8417 5.49228 13.7538 5.45989 13.653L4.91089 11.945C4.68051 11.8323 4.45829 11.7037 4.24589 11.56L2.49089 11.939C2.38735 11.9611 2.27947 11.9498 2.18279 11.9066C2.0861 11.8635 2.0056 11.7908 1.95289 11.699L0.566886 9.3C0.51396 9.20824 0.491543 9.10205 0.502865 8.99673C0.514188 8.89141 0.558666 8.79241 0.629886 8.714L1.83489 7.382C1.81743 7.12763 1.81743 6.87237 1.83489 6.618L0.629886 5.286C0.558666 5.20759 0.514188 5.10859 0.502865 5.00327C0.491543 4.89795 0.51396 4.79176 0.566886 4.7L1.95289 2.3C2.00575 2.20837 2.08631 2.13587 2.18298 2.09293C2.27966 2.04998 2.38746 2.0388 2.49089 2.061L4.24589 2.44C4.45789 2.297 4.67989 2.168 4.91089 2.055L5.46089 0.347C5.49317 0.246545 5.55641 0.158879 5.64155 0.09655C5.72669 0.0342214 5.82937 0.000425667 5.93489 0H8.70689H8.70789ZM8.34189 1H6.30189L5.73389 2.767L5.35089 2.954C5.1626 3.04614 4.98085 3.15105 4.80689 3.268L4.45289 3.508L2.63689 3.116L1.61689 4.884L2.86189 6.262L2.83189 6.686C2.81752 6.89509 2.81752 7.10491 2.83189 7.314L2.86189 7.738L1.61489 9.116L2.63589 10.884L4.45189 10.493L4.80589 10.732C4.97985 10.849 5.1616 10.9539 5.34989 11.046L5.73289 11.233L6.30189 13H8.34389L8.91389 11.232L9.29589 11.046C9.48396 10.9541 9.6654 10.8492 9.83889 10.732L10.1919 10.493L12.0089 10.884L13.0289 9.116L11.7829 7.738L11.8129 7.314C11.8273 7.10458 11.8273 6.89442 11.8129 6.685L11.7829 6.261L13.0299 4.884L12.0089 3.116L10.1919 3.506L9.83889 3.268C9.66542 3.15081 9.48398 3.04589 9.29589 2.954L8.91389 2.768L8.34289 1H8.34189ZM7.32189 4C8.11754 4 8.8806 4.31607 9.44321 4.87868C10.0058 5.44129 10.3219 6.20435 10.3219 7C10.3219 7.79565 10.0058 8.55871 9.44321 9.12132C8.8806 9.68393 8.11754 10 7.32189 10C6.52624 10 5.76317 9.68393 5.20057 9.12132C4.63796 8.55871 4.32189 7.79565 4.32189 7C4.32189 6.20435 4.63796 5.44129 5.20057 4.87868C5.76317 4.31607 6.52624 4 7.32189 4V4ZM7.32189 5C6.79145 5 6.28274 5.21071 5.90767 5.58579C5.5326 5.96086 5.32189 6.46957 5.32189 7C5.32189 7.53043 5.5326 8.03914 5.90767 8.41421C6.28274 8.78929 6.79145 9 7.32189 9C7.85232 9 8.36103 8.78929 8.7361 8.41421C9.11117 8.03914 9.32189 7.53043 9.32189 7C9.32189 6.46957 9.11117 5.96086 8.7361 5.58579C8.36103 5.21071 7.85232 5 7.32189 5V5Z"/>
</mask>
<path d="M8.70789 0C8.81374 3.33582e-06 8.91687 0.0336038 9.00241 0.0959625C9.08795 0.158321 9.15149 0.24622 9.18389 0.347L9.73389 2.056C9.96489 2.169 10.1859 2.296 10.3969 2.439L12.1529 2.061C12.2564 2.03889 12.3643 2.05022 12.461 2.09335C12.5577 2.13648 12.6382 2.20919 12.6909 2.301L14.0769 4.7C14.1298 4.79176 14.1522 4.89795 14.1409 5.00327C14.1296 5.10859 14.0851 5.20759 14.0139 5.286L12.8089 6.616C12.8264 6.87103 12.8264 7.12697 12.8089 7.382L14.0139 8.714C14.0851 8.79241 14.1296 8.89141 14.1409 8.99673C14.1522 9.10205 14.1298 9.20824 14.0769 9.3L12.6909 11.7C12.638 11.7916 12.5575 11.8641 12.4608 11.9071C12.3641 11.95 12.2563 11.9612 12.1529 11.939L10.3969 11.561C10.1869 11.703 9.96489 11.831 9.73489 11.944L9.18389 13.653C9.15149 13.7538 9.08795 13.8417 9.00241 13.904C8.91687 13.9664 8.81374 14 8.70789 14H5.93589C5.83003 14 5.7269 13.9664 5.64136 13.904C5.55582 13.8417 5.49228 13.7538 5.45989 13.653L4.91089 11.945C4.68051 11.8323 4.45829 11.7037 4.24589 11.56L2.49089 11.939C2.38735 11.9611 2.27947 11.9498 2.18279 11.9066C2.0861 11.8635 2.0056 11.7908 1.95289 11.699L0.566886 9.3C0.51396 9.20824 0.491543 9.10205 0.502865 8.99673C0.514188 8.89141 0.558666 8.79241 0.629886 8.714L1.83489 7.382C1.81743 7.12763 1.81743 6.87237 1.83489 6.618L0.629886 5.286C0.558666 5.20759 0.514188 5.10859 0.502865 5.00327C0.491543 4.89795 0.51396 4.79176 0.566886 4.7L1.95289 2.3C2.00575 2.20837 2.08631 2.13587 2.18298 2.09293C2.27966 2.04998 2.38746 2.0388 2.49089 2.061L4.24589 2.44C4.45789 2.297 4.67989 2.168 4.91089 2.055L5.46089 0.347C5.49317 0.246545 5.55641 0.158879 5.64155 0.09655C5.72669 0.0342214 5.82937 0.000425667 5.93489 0H8.70689H8.70789ZM8.34189 1H6.30189L5.73389 2.767L5.35089 2.954C5.1626 3.04614 4.98085 3.15105 4.80689 3.268L4.45289 3.508L2.63689 3.116L1.61689 4.884L2.86189 6.262L2.83189 6.686C2.81752 6.89509 2.81752 7.10491 2.83189 7.314L2.86189 7.738L1.61489 9.116L2.63589 10.884L4.45189 10.493L4.80589 10.732C4.97985 10.849 5.1616 10.9539 5.34989 11.046L5.73289 11.233L6.30189 13H8.34389L8.91389 11.232L9.29589 11.046C9.48396 10.9541 9.6654 10.8492 9.83889 10.732L10.1919 10.493L12.0089 10.884L13.0289 9.116L11.7829 7.738L11.8129 7.314C11.8273 7.10458 11.8273 6.89442 11.8129 6.685L11.7829 6.261L13.0299 4.884L12.0089 3.116L10.1919 3.506L9.83889 3.268C9.66542 3.15081 9.48398 3.04589 9.29589 2.954L8.91389 2.768L8.34289 1H8.34189ZM7.32189 4C8.11754 4 8.8806 4.31607 9.44321 4.87868C10.0058 5.44129 10.3219 6.20435 10.3219 7C10.3219 7.79565 10.0058 8.55871 9.44321 9.12132C8.8806 9.68393 8.11754 10 7.32189 10C6.52624 10 5.76317 9.68393 5.20057 9.12132C4.63796 8.55871 4.32189 7.79565 4.32189 7C4.32189 6.20435 4.63796 5.44129 5.20057 4.87868C5.76317 4.31607 6.52624 4 7.32189 4V4ZM7.32189 5C6.79145 5 6.28274 5.21071 5.90767 5.58579C5.5326 5.96086 5.32189 6.46957 5.32189 7C5.32189 7.53043 5.5326 8.03914 5.90767 8.41421C6.28274 8.78929 6.79145 9 7.32189 9C7.85232 9 8.36103 8.78929 8.7361 8.41421C9.11117 8.03914 9.32189 7.53043 9.32189 7C9.32189 6.46957 9.11117 5.96086 8.7361 5.58579C8.36103 5.21071 7.85232 5 7.32189 5V5Z" fill="white" stroke="white" stroke-width="0.03125" mask="url(#path-1-inside-1_1552_5439)"/>
</svg>
