<svg width="16" height="16" viewBox="0 0 16 16" fill="none" xmlns="http://www.w3.org/2000/svg">
<path fill-rule="evenodd" clip-rule="evenodd" d="M12.4717 3.52868C12.3467 3.40365 12.1771 3.33341 12.0003 3.33341H4.00033C3.82351 3.33341 3.65395 3.40365 3.52892 3.52868C3.4039 3.6537 3.33366 3.82327 3.33366 4.00008V11.7241L4.66699 10.3907C4.91698 10.1407 5.25607 10.0002 5.60966 10.0001H12.0003C12.1771 10.0001 12.3467 9.92984 12.4717 9.80482C12.5968 9.6798 12.667 9.51023 12.667 9.33341V4.00008C12.667 3.82327 12.5968 3.6537 12.4717 3.52868ZM3.05752 3.05727C3.30756 2.80722 3.6467 2.66675 4.00033 2.66675H12.0003C12.3539 2.66675 12.6931 2.80722 12.9431 3.05727C13.1932 3.30732 13.3337 3.64646 13.3337 4.00008V9.33341C13.3337 9.68704 13.1932 10.0262 12.9431 10.2762C12.6931 10.5263 12.3539 10.6667 12.0003 10.6667H5.60966C5.43286 10.6668 5.26332 10.737 5.13833 10.8621L3.23633 12.7641C3.18975 12.8108 3.13036 12.8426 3.06568 12.8555C3.00101 12.8685 2.93395 12.8619 2.87299 12.8367C2.81204 12.8115 2.75993 12.7688 2.72326 12.714C2.68659 12.6592 2.66701 12.5947 2.66699 12.5287V4.00008C2.66699 3.64646 2.80747 3.30732 3.05752 3.05727ZM5.80506 7.13815C5.93009 7.01313 6.00033 6.84356 6.00033 6.66675C6.00033 6.48994 5.93009 6.32037 5.80506 6.19534C5.68004 6.07032 5.51047 6.00008 5.33366 6.00008C5.15685 6.00008 4.98728 6.07032 4.86225 6.19534C4.73723 6.32037 4.66699 6.48994 4.66699 6.66675C4.66699 6.84356 4.73723 7.01313 4.86225 7.13815C4.98728 7.26318 5.15685 7.33341 5.33366 7.33341C5.51047 7.33341 5.68004 7.26318 5.80506 7.13815ZM8.47173 7.13815C8.59675 7.01313 8.66699 6.84356 8.66699 6.66675C8.66699 6.48994 8.59675 6.32037 8.47173 6.19534C8.34671 6.07032 8.17714 6.00008 8.00032 6.00008C7.82351 6.00008 7.65394 6.07032 7.52892 6.19534C7.4039 6.32037 7.33366 6.48994 7.33366 6.66675C7.33366 6.84356 7.4039 7.01313 7.52892 7.13815C7.65394 7.26318 7.82351 7.33341 8.00032 7.33341C8.17714 7.33341 8.34671 7.26318 8.47173 7.13815ZM11.1384 7.13815C11.2634 7.01313 11.3337 6.84356 11.3337 6.66675C11.3337 6.48994 11.2634 6.32037 11.1384 6.19534C11.0134 6.07032 10.8438 6.00008 10.667 6.00008C10.4902 6.00008 10.3206 6.07032 10.1956 6.19534C10.0706 6.32037 10.0003 6.48994 10.0003 6.66675C10.0003 6.84356 10.0706 7.01313 10.1956 7.13815C10.3206 7.26318 10.4902 7.33341 10.667 7.33341C10.8438 7.33341 11.0134 7.26318 11.1384 7.13815Z" fill="white"/>
</svg>
