<svg width="16" height="16" viewBox="0 0 16 16" fill="none" xmlns="http://www.w3.org/2000/svg">
<g clip-path="url(#clip0_3136_34528)">
<rect width="16" height="16" fill="white" fill-opacity="0.01"/>
<path d="M8 5.33325C11.3137 5.33325 14 4.43782 14 3.33325C14 2.22868 11.3137 1.33325 8 1.33325C4.68629 1.33325 2 2.22868 2 3.33325C2 4.43782 4.68629 5.33325 8 5.33325Z" stroke="white" stroke-width="0.67" stroke-linecap="round" stroke-linejoin="round"/>
<path d="M14 8C14 9.10667 11.3333 10 8 10C4.66667 10 2 9.10667 2 8" stroke="white" stroke-linecap="round" stroke-linejoin="round"/>
<path d="M2 3.33325V12.6666C2 13.7733 4.66667 14.6666 8 14.6666C11.3333 14.6666 14 13.7733 14 12.6666V3.33325" stroke="white" stroke-linecap="round" stroke-linejoin="round"/>
</g>
<defs>
<clipPath id="clip0_3136_34528">
<rect width="16" height="16" fill="white"/>
</clipPath>
</defs>
</svg>
