<svg width="24" height="24" viewBox="0 0 24 24" fill="none" xmlns="http://www.w3.org/2000/svg">
<path d="M12 8L15.804 10.764M12 8L8.196 10.764M12 8V5M15.804 10.764L14.351 15.236H9.65M15.804 10.764L18.5 9.5M8.196 10.764L9.65 15.236M8.196 10.764L5.5 9.5M12 5L8.624 2.584M12 5L15.376 2.584M18.5 9.5L21.95 13M18.5 9.5L19.5 5.385M9.65 15.236L8 17.5M14.352 15.236L16 17.5M16 17.5L20.662 17M16 17.5L13.5 21.888M8 17.5L3.338 17M8 17.5L10.5 21.888M5.5 9.5L2.05 13M5.5 9.5L4.5 5.385M22 12C22 17.523 17.523 22 12 22C6.477 22 2 17.523 2 12C2 6.477 6.477 2 12 2C17.523 2 22 6.477 22 12Z" stroke="white" stroke-linecap="round" stroke-linejoin="round"/>
</svg>
