<svg width="24" height="24" viewBox="0 0 24 24" fill="none" xmlns="http://www.w3.org/2000/svg">
<path fill-rule="evenodd" clip-rule="evenodd" d="M2.45372 8.46092C2.45372 5.77016 4.63501 3.58887 7.32577 3.58887H8.06515C10.1039 3.58887 11.7979 5.06519 12.1363 7.00711L19.4745 5.04084C20.4475 4.78014 21.4476 5.35752 21.7083 6.33046C21.969 7.30341 21.3916 8.30347 20.4186 8.56417L12.1978 10.7669V16.8756C13.1468 16.9399 13.8966 17.73 13.8966 18.6952C13.8966 19.7025 13.08 20.519 12.0728 20.519H2.34578C1.33852 20.519 0.521973 19.7025 0.521973 18.6952C0.521973 17.688 1.33852 16.8714 2.34578 16.8714H2.45372V8.46092ZM11.1978 11.0349L7.49974 12.0258C6.5268 12.2865 5.52674 11.7091 5.26604 10.7361C5.02125 9.82258 5.51538 8.8851 6.38207 8.55825C6.58992 8.45229 6.82079 8.38501 7.06519 8.36591L11.1651 7.26733C10.9451 5.75246 9.64102 4.58887 8.06515 4.58887H7.32577C5.1873 4.58887 3.45372 6.32245 3.45372 8.46092V16.8714H11.1978V11.0349ZM9.65523 10.4129L8.98733 10.5919C9.01727 10.4608 9.03309 10.3243 9.03309 10.1841C9.03309 9.72866 8.86614 9.3122 8.5901 8.99259L10.7493 8.41404L9.65523 10.4129ZM10.9897 10.0554L13.1453 9.47776L14.2394 7.47887L12.0735 8.05923L12.0801 8.06325L10.9897 10.0554ZM14.4798 9.12019L16.6356 8.54256L17.7296 6.54366L15.5739 7.12129L14.4798 9.12019ZM20.1598 7.59824L17.9701 8.18498L19.0641 6.18608L19.7334 6.00676C20.1728 5.889 20.6246 6.14981 20.7423 6.58928C20.8601 7.02876 20.5993 7.48048 20.1598 7.59824ZM6.38547 10.1841C6.38547 9.88295 6.54708 9.61952 6.78831 9.47584C6.79696 9.47321 6.80569 9.47072 6.81449 9.46836L7.21762 9.36035C7.66875 9.36482 8.03309 9.73192 8.03309 10.1841C8.03309 10.6391 7.66425 11.0079 7.20928 11.0079C6.7543 11.0079 6.38547 10.6391 6.38547 10.1841ZM2.45372 17.9635V17.8714H2.34578C1.89081 17.8714 1.52197 18.2403 1.52197 18.6952C1.52197 19.1502 1.89081 19.519 2.34578 19.519H12.0728C12.5277 19.519 12.8966 19.1502 12.8966 18.6952C12.8966 18.2828 12.5935 17.9411 12.1978 17.8809V17.9635H11.6978H2.95372H2.45372Z" fill="white"/>
</svg>
