<svg width="24" height="24" viewBox="0 0 24 24" fill="none" xmlns="http://www.w3.org/2000/svg">
<mask id="path-1-inside-1_4137_13906" fill="white">
<path fill-rule="evenodd" clip-rule="evenodd" d="M6.17656 3.2002C4.59411 3.2002 3.31128 4.48302 3.31128 6.06547V10.9359C3.31128 11.6062 3.85461 12.1495 4.52484 12.1495L9.52426 12.1495V6.12731C9.52426 4.51071 8.21374 3.2002 6.59714 3.2002H6.17656ZM6.17656 2.2002H6.59714H17.7614C19.9303 2.2002 21.6886 3.95843 21.6886 6.12731V10.9359C21.6886 12.1585 20.6975 13.1495 19.475 13.1495H13.3222V21.8736C13.3235 21.8881 13.3241 21.9028 13.3241 21.9176C13.3241 21.9324 13.3235 21.9471 13.3222 21.9616V21.9774H13.3205C13.2905 22.2254 13.0761 22.4176 12.8202 22.4176C12.5441 22.4176 12.3163 22.1937 12.3163 21.9176C12.3163 21.8917 12.3183 21.8662 12.3222 21.8414V13.1495L10.0243 13.1495L4.52485 13.1495C3.30233 13.1495 2.31128 12.1585 2.31128 10.9359V6.06547C2.31128 3.93074 4.04182 2.2002 6.17656 2.2002ZM9.21526 3.2002C10.0187 3.91928 10.5243 4.96425 10.5243 6.12731V12.1495L12.8222 12.1495H19.475C20.1452 12.1495 20.6886 11.6062 20.6886 10.9359V6.12731C20.6886 4.51071 19.378 3.2002 17.7614 3.2002H9.21526ZM7.31779 7.40099C7.31779 7.90202 6.91163 8.30818 6.4106 8.30818C5.90957 8.30818 5.50341 7.90202 5.50341 7.40099C5.50341 6.89996 5.90957 6.4938 6.4106 6.4938C6.91163 6.4938 7.31779 6.89996 7.31779 7.40099Z"/>
</mask>
<path fill-rule="evenodd" clip-rule="evenodd" d="M6.17656 3.2002C4.59411 3.2002 3.31128 4.48302 3.31128 6.06547V10.9359C3.31128 11.6062 3.85461 12.1495 4.52484 12.1495L9.52426 12.1495V6.12731C9.52426 4.51071 8.21374 3.2002 6.59714 3.2002H6.17656ZM6.17656 2.2002H6.59714H17.7614C19.9303 2.2002 21.6886 3.95843 21.6886 6.12731V10.9359C21.6886 12.1585 20.6975 13.1495 19.475 13.1495H13.3222V21.8736C13.3235 21.8881 13.3241 21.9028 13.3241 21.9176C13.3241 21.9324 13.3235 21.9471 13.3222 21.9616V21.9774H13.3205C13.2905 22.2254 13.0761 22.4176 12.8202 22.4176C12.5441 22.4176 12.3163 22.1937 12.3163 21.9176C12.3163 21.8917 12.3183 21.8662 12.3222 21.8414V13.1495L10.0243 13.1495L4.52485 13.1495C3.30233 13.1495 2.31128 12.1585 2.31128 10.9359V6.06547C2.31128 3.93074 4.04182 2.2002 6.17656 2.2002ZM9.21526 3.2002C10.0187 3.91928 10.5243 4.96425 10.5243 6.12731V12.1495L12.8222 12.1495H19.475C20.1452 12.1495 20.6886 11.6062 20.6886 10.9359V6.12731C20.6886 4.51071 19.378 3.2002 17.7614 3.2002H9.21526ZM7.31779 7.40099C7.31779 7.90202 6.91163 8.30818 6.4106 8.30818C5.90957 8.30818 5.50341 7.90202 5.50341 7.40099C5.50341 6.89996 5.90957 6.4938 6.4106 6.4938C6.91163 6.4938 7.31779 6.89996 7.31779 7.40099Z" fill="white"/>
<path d="M4.52484 12.1495L4.52484 10.8748H4.52484L4.52484 12.1495ZM9.52426 12.1495L9.52426 13.4242L10.799 12.1495H9.52426ZM13.3222 13.1495V11.8748L12.0475 13.1495H13.3222ZM13.3222 21.8736H12.0475V21.93L12.0525 21.9861L13.3222 21.8736ZM13.3222 21.9616L12.0525 21.8491L12.0475 21.9052V21.9616H13.3222ZM13.3222 21.9774V23.2521L14.5969 21.9774H13.3222ZM13.3205 21.9774V20.7027L12.0551 21.824L13.3205 21.9774ZM12.3222 21.8414L13.5818 22.0372L13.5969 21.9399V21.8414H12.3222ZM12.3222 13.1495H13.5969L12.3222 11.8748L12.3222 13.1495ZM10.0243 13.1495L10.0243 11.8748H10.0243L10.0243 13.1495ZM4.52485 13.1495L4.52484 11.8748H4.52484L4.52485 13.1495ZM9.21526 3.2002V1.92549L8.36513 4.15001L9.21526 3.2002ZM10.5243 12.1495H9.24956L10.5242 13.4242L10.5243 12.1495ZM12.8222 12.1495L12.8222 13.4242H12.8222V12.1495ZM4.58598 6.06547C4.58598 5.18702 5.29811 4.4749 6.17656 4.4749V1.92549C3.89011 1.92549 2.03658 3.77903 2.03658 6.06547H4.58598ZM4.58598 10.9359V6.06547H2.03658V10.9359H4.58598ZM4.52484 10.8748C4.55861 10.8748 4.58598 10.9022 4.58598 10.9359H2.03658C2.03658 12.3102 3.15061 13.4242 4.52485 13.4242L4.52484 10.8748ZM9.52426 10.8748L4.52484 10.8748L4.52485 13.4242L9.52426 13.4242L9.52426 10.8748ZM8.24956 6.12731V12.1495H10.799V6.12731H8.24956ZM6.59714 4.4749C7.50975 4.4749 8.24956 5.21471 8.24956 6.12731H10.799C10.799 3.80671 8.91774 1.92549 6.59714 1.92549V4.4749ZM6.17656 4.4749H6.59714V1.92549H6.17656V4.4749ZM6.59714 0.925494H6.17656V3.4749H6.59714V0.925494ZM17.7614 0.925494H6.59714V3.4749H17.7614V0.925494ZM22.9633 6.12731C22.9633 3.25443 20.6343 0.925494 17.7614 0.925494V3.4749C19.2263 3.4749 20.4139 4.66242 20.4139 6.12731H22.9633ZM22.9633 10.9359V6.12731H20.4139V10.9359H22.9633ZM19.475 14.4242C21.4015 14.4242 22.9633 12.8625 22.9633 10.9359H20.4139C20.4139 11.4545 19.9935 11.8748 19.475 11.8748V14.4242ZM13.3222 14.4242H19.475V11.8748H13.3222V14.4242ZM14.5969 21.8736V13.1495H12.0475V21.8736H14.5969ZM12.0525 21.9861C12.0504 21.9633 12.0494 21.9404 12.0494 21.9176H14.5988C14.5988 21.8651 14.5965 21.8129 14.5919 21.7611L12.0525 21.9861ZM12.0494 21.9176C12.0494 21.8948 12.0504 21.8719 12.0525 21.8491L14.5919 22.0741C14.5965 22.0223 14.5988 21.9701 14.5988 21.9176H12.0494ZM14.5969 21.9774V21.9616H12.0475V21.9774H14.5969ZM13.3205 23.2521H13.3222V20.7027H13.3205V23.2521ZM12.0551 21.824C12.1028 21.4305 12.433 21.1429 12.8202 21.1429V23.6923C13.7193 23.6923 14.4781 23.0203 14.586 22.1309L12.0551 21.824ZM12.8202 21.1429C13.2351 21.1429 13.591 21.4769 13.591 21.9176H11.0416C11.0416 22.9106 11.853 23.6923 12.8202 23.6923V21.1429ZM13.591 21.9176C13.591 21.9576 13.5879 21.9976 13.5818 22.0372L11.0626 21.6455C11.0487 21.7348 11.0416 21.8258 11.0416 21.9176H13.591ZM11.0475 13.1495V21.8414H13.5969V13.1495H11.0475ZM10.0243 14.4242L12.3222 14.4242L12.3222 11.8748L10.0243 11.8748L10.0243 14.4242ZM4.52485 14.4242L10.0243 14.4242L10.0243 11.8748L4.52484 11.8748L4.52485 14.4242ZM1.03658 10.9359C1.03658 12.8625 2.59833 14.4242 4.52485 14.4242L4.52484 11.8748C4.00632 11.8748 3.58598 11.4545 3.58598 10.9359H1.03658ZM1.03658 6.06547V10.9359H3.58598V6.06547H1.03658ZM6.17656 0.925494C3.33782 0.925494 1.03658 3.22674 1.03658 6.06547H3.58598C3.58598 4.63474 4.74582 3.4749 6.17656 3.4749V0.925494ZM11.799 6.12731C11.799 4.58661 11.1275 3.20105 10.0654 2.25038L8.36513 4.15001C8.90979 4.63751 9.24956 5.34189 9.24956 6.12731H11.799ZM11.799 12.1495V6.12731H9.24956V12.1495H11.799ZM12.8222 10.8748L10.5243 10.8748L10.5242 13.4242L12.8222 13.4242L12.8222 10.8748ZM19.475 10.8748H12.8222V13.4242H19.475V10.8748ZM19.4139 10.9359C19.4139 10.9022 19.4412 10.8748 19.475 10.8748V13.4242C20.8492 13.4242 21.9633 12.3102 21.9633 10.9359H19.4139ZM19.4139 6.12731V10.9359H21.9633V6.12731H19.4139ZM17.7614 4.4749C18.674 4.4749 19.4139 5.21471 19.4139 6.12731H21.9633C21.9633 3.80671 20.082 1.92549 17.7614 1.92549V4.4749ZM9.21526 4.4749H17.7614V1.92549H9.21526V4.4749ZM6.4106 9.58288C7.61563 9.58288 8.59249 8.60602 8.59249 7.40099H6.04309C6.04309 7.19802 6.20763 7.03348 6.4106 7.03348V9.58288ZM4.22871 7.40099C4.22871 8.60602 5.20557 9.58288 6.4106 9.58288V7.03348C6.61357 7.03348 6.77811 7.19802 6.77811 7.40099H4.22871ZM6.4106 5.2191C5.20557 5.2191 4.22871 6.19597 4.22871 7.40099H6.77811C6.77811 7.60396 6.61357 7.7685 6.4106 7.7685V5.2191ZM8.59249 7.40099C8.59249 6.19597 7.61562 5.2191 6.4106 5.2191V7.7685C6.20763 7.7685 6.04309 7.60396 6.04309 7.40099H8.59249Z" fill="white" mask="url(#path-1-inside-1_4137_13906)"/>
</svg>
